<svg width="16" height="16" viewBox="0 0 16 16" fill="none" xmlns="http://www.w3.org/2000/svg">
<path fill-rule="evenodd" clip-rule="evenodd" d="M1.2 4H14.8C15.463 4 16 3.463 16 2.8V2.2C16 1.537 15.463 1 14.8 1H1.2C0.537 1 0 1.537 0 2.2V2.8C0 3.463 0.537 4 1.2 4ZM1.2 9.5H8.8C9.463 9.5 10 8.963 10 8.3V7.7C10 7.037 9.463 6.5 8.8 6.5H1.2C0.537 6.5 0 7.037 0 7.7V8.3C0 8.963 0.537 9.5 1.2 9.5ZM1.2 15H14.8C15.463 15 16 14.463 16 13.8V13.2C16 12.537 15.463 12 14.8 12H1.2C0.537 12 0 12.537 0 13.2V13.8C0 14.463 0.537 15 1.2 15Z" fill="#3183E2"/>
<mask id="mask0" mask-type="alpha" maskUnits="userSpaceOnUse" x="0" y="1" width="16" height="14">
<path fill-rule="evenodd" clip-rule="evenodd" d="M1.2 4H14.8C15.463 4 16 3.463 16 2.8V2.2C16 1.537 15.463 1 14.8 1H1.2C0.537 1 0 1.537 0 2.2V2.8C0 3.463 0.537 4 1.2 4ZM1.2 9.5H8.8C9.463 9.5 10 8.963 10 8.3V7.7C10 7.037 9.463 6.5 8.8 6.5H1.2C0.537 6.5 0 7.037 0 7.7V8.3C0 8.963 0.537 9.5 1.2 9.5ZM1.2 15H14.8C15.463 15 16 14.463 16 13.8V13.2C16 12.537 15.463 12 14.8 12H1.2C0.537 12 0 12.537 0 13.2V13.8C0 14.463 0.537 15 1.2 15Z" fill="white"/>
</mask>
<g mask="url(#mask0)">
<rect width="16" height="16" fill="#0073E6"/>
</g>
</svg>
