<?xml version="1.0" encoding="UTF-8"?>
<svg width="18px" height="20px" viewBox="0 0 18 20" version="1.1" xmlns="http://www.w3.org/2000/svg" xmlns:xlink="http://www.w3.org/1999/xlink">
    <!-- Generator: Sketch 52.5 (67469) - http://www.bohemiancoding.com/sketch -->
    <title>Icon / Video</title>
    <desc>Created with Sketch.</desc>
    <defs>
        <path d="M2.5,10.6347953 C2.5,6.96604532 2.7275,4.38854532 2.98625,2.63979532 C3.27125,0.718545322 5.11375,-0.461454678 6.8475,0.172295322 C8.33375,0.714795322 10.3575,1.66479532 12.9325,3.32729532 C15.95125,5.27604532 17.91875,7.06354532 19.14125,8.38229532 C20.3125,9.64479532 20.285,11.6647953 19.0625,12.8722953 C17.835,14.0872953 15.88625,15.6547953 12.9325,17.2010453 C10.17,18.6460453 8.04125,19.4460453 6.53,19.8885453 C4.8475,20.3810453 3.13,19.1897953 2.87125,17.3597953 C2.66375,15.8910453 2.5,13.7460453 2.5,10.6347953" id="path-1"></path>
    </defs>
    <g id="CorpSite" stroke="none" stroke-width="1" fill="none" fill-rule="evenodd">
        <g id="Corp_Invest_Assets" transform="translate(-280.000000, -99.000000)">
            <g id="Icon-/-Video" transform="translate(278.000000, 99.000000)">
                <mask id="mask-2" fill="white">
                    <use xlink:href="#path-1"></use>
                </mask>
                <use id="Fill-1" fill="#3282E1" fill-rule="evenodd" xlink:href="#path-1"></use>
                <g id="Color-/-2.-Prime-/-Prime" mask="url(#mask-2)" fill="#0073E6" fill-rule="evenodd">
                    <rect id="Fill" x="0" y="0" width="20" height="20"></rect>
                </g>
            </g>
        </g>
    </g>
</svg>