<?xml version="1.0" encoding="UTF-8"?>
<svg width="116px" height="119px" viewBox="0 0 116 119" version="1.1" xmlns="http://www.w3.org/2000/svg" xmlns:xlink="http://www.w3.org/1999/xlink">
    <!-- Generator: Sketch 52.5 (67469) - http://www.bohemiancoding.com/sketch -->
    <title>ill_gifts</title>
    <desc>Created with Sketch.</desc>
    <g id="Belarus" stroke="none" stroke-width="1" fill="none" fill-rule="evenodd">
        <g id="Corp_BelMir_000_UI_illustration" transform="translate(-87.000000, -2298.000000)">
            <g id="ill_gifts" transform="translate(80.000000, 2294.000000)">
                <g id="Group-9" transform="translate(7.000000, 6.000000)">
                    <polygon id="Path-37" fill="#CDE005" points="19 42 19.0737418 16.0263672 95.6386719 16 95.6386719 42"></polygon>
                    <polygon id="Path-42" fill="#01CF39" points="25 41.6102382 25 105 87.9148199 105 91 40"></polygon>
                    <path d="M50.1380782,16.3375955 C49.9539739,16.7877228 49.9539739,47.3418576 50.1380782,108 L58.0782025,108 L60,16.3375955 C53.6094897,15.8874682 50.3221825,15.8874682 50.1380782,16.3375955 Z" id="Path-43" fill="#FFBC16"></path>
                    <polygon id="Path-39" fill="#FBBC23" points="6 89.8538034 6 111 41 111 41 89"></polygon>
                    <polygon id="Path-38" fill="#FF3744" points="0 68 44 68 44 91 0 91"></polygon>
                    <polygon id="Path-41" fill="#00C2FD" points="59 93.7047947 59 114 110 112.638358 110 91"></polygon>
                    <polygon id="Path-40" fill="#0073E6" points="51 95 51 75 116 77.3318275 116 91.856833"></polygon>
                    <polygon id="Path-44" fill="#00C2FD" points="20.7880555 66 20 113 25.2874649 113 27 66"></polygon>
                    <polygon id="Path-45" fill="#EC2A63" points="84 74 84 117 90.9848354 115.928832 93 75.639476"></polygon>
                    <path d="M87.2016602,75.1860352 C101.415202,76.4526367 107.762207,73.4778646 106.242676,66.2617187 C105.39703,62.2458065 101.099609,60.3344727 95.8608398,63.8110352 C94.1618973,64.9384907 91.6409012,68.0984842 88.2978516,73.2910156 C86.421224,68.0777995 84.2456055,64.5942383 81.7709961,62.840332 C77.7393605,59.9828665 72.4821523,61.2252597 71.2255859,64.6416016 C68.7692057,71.319987 74.0945638,74.8347982 87.2016602,75.1860352 Z" id="Path-47" stroke="#EC2A63" stroke-width="3" stroke-linecap="square" stroke-linejoin="bevel"></path>
                    <path d="M23.9155669,64.663181 C22.3367909,59.8077123 20.7324615,56.6342097 19.1025787,55.1426732 C16.6577544,52.9053685 11.3327171,53.9267399 9.71244194,57.7906224 C6.86429741,64.5826146 13.1206451,65.5943334 18.4927154,65.6998021 C23.8647857,65.8052709 24.3076568,65.8711888 30.3525787,65.7837865 C36.3975005,65.6963842 42.8649743,64.5047063 40.7563873,57.5826146 C38.8105865,51.1949193 32.3757437,52.7419061 29.6435943,54.7564428 C28.0833524,55.9068793 26.1740099,59.2091254 23.9155669,64.663181 Z" id="Path-48" stroke="#00C2FD" stroke-width="3" stroke-linecap="square" stroke-linejoin="bevel"></path>
                    <path d="M48.5743236,15.5301146 C50.589706,15.488088 56.60474,15.7235936 58.6866283,15.4876342 C65.236053,14.7453278 67.6115523,12.7398105 68.62364,9.07991932 C69.7100658,5.15120838 66.7442455,-0.60806896 60.3038158,0.540856821 C55.4091775,1.41402467 53.0607074,6.10494264 53.2584056,14.6136107 C51.1031322,4.16406646 47.1487051,-0.681473908 41.3951244,0.0769896337 C32.7647533,1.21468495 34.298933,9.64241932 37.708601,12.4607787 C41.1182689,15.2791381 44.9449291,15.6057982 48.5743236,15.5301146 Z" id="Path-49" stroke="#FFBC16" stroke-width="3" stroke-linecap="square" stroke-linejoin="bevel"></path>
                </g>
            </g>
        </g>
    </g>
</svg>