<?xml version="1.0" encoding="UTF-8"?>
<svg width="39px" height="63px" viewBox="0 0 39 63" version="1.1" xmlns="http://www.w3.org/2000/svg" xmlns:xlink="http://www.w3.org/1999/xlink">
    <!-- Generator: Sketch 52.5 (67469) - http://www.bohemiancoding.com/sketch -->
    <title>ill_userpic_unknown</title>
    <desc>Created with Sketch.</desc>
    <g id="Belarus" stroke="none" stroke-width="1" fill="none" fill-rule="evenodd">
        <g id="Corp_BelMir_000_UI_illustration" transform="translate(-283.000000, -1094.000000)">
            <g id="ill_userpic_unknown" transform="translate(266.000000, 1093.000000)">
                <g id="Group-27-Copy-11" opacity="0.100000001" fill="#172029">
                    <g id="Group-14" transform="translate(17.000000, 1.000000)">
                        <path d="M35.1964561,22.5187072 C37.7626866,22.9396217 38.1177266,26.6738268 38.0917608,27.7664114 C38.0638107,28.9424914 37.4922213,32.592025 34.1928105,32.4492719 C33.8446863,32.4342099 33.533328,32.375764 33.2547869,32.2819212 C31.8968494,36.3930038 29.3977154,41.0921501 25.3953488,43.7289542 L25.3953488,48.1949537 C36.5836069,49.2746013 38.6921036,54.5547836 38.9749504,56.8560737 C39.456888,60.7772013 32.9844114,63.1123698 19.5834803,62.9958339 C6.18254923,62.8792979 2.38720571,59.8693902 2.01746515,56.6449455 C1.83082328,55.0172734 2.95583401,49.8600179 14.5116219,48.3909601 L14.5116279,44.9554358 C9.8807012,42.8699665 7.0835463,37.3021827 5.5036503,32.1911811 C5.01828703,32.3766944 4.44694537,32.4751122 3.77505137,32.4492719 C0.0632142232,32.3065189 0.0667542643,28.2667469 0.00365823877,27.1296207 C-0.0565307255,26.0448861 0.602589009,22.9190799 3.72752717,22.5209727 C3.72338647,21.9216095 3.74958782,21.2253206 3.81963185,20.461343 C2.24403404,17.9561529 0.437966029,13.1995909 4.34870637,9.05427083 C9.54434569,3.54697917 20.0540405,0.201653646 23.3766088,0.906666667 C25.1875388,1.29092639 26.8459131,3.28344222 28.3517317,6.88421416 C29.0774113,7.50046721 29.7197844,8.19746598 30.2881964,8.95270826 C32.8686702,7.48295577 34.7182452,7.38709641 35.8369214,8.66513021 C37.7143936,10.8100521 37.8177196,15.7139323 36.5438553,19.4010286 C36.1625798,20.5045996 35.7156084,21.5810829 35.1964561,22.5187072 Z" id="Combined-Shape"></path>
                    </g>
                </g>
                <path d="M22,30.6891595 C22.0221801,25.1014717 22.2525357,19.7176682 22.6910671,14.5377491 C23.1295984,9.3578301 23.860748,5.84524705 24.8845158,4 L30.7200877,12.7172549 C33.7191157,11.228367 36.0562595,10.6033577 37.7315192,10.8422271 C39.4067789,11.0810965 41.3388199,11.6689765 43.5276422,12.6058671 L47.7291779,4.15373836 C49.559666,6.29524599 50.6113173,9.8733854 50.884132,14.8881566 C51.1569466,19.9029278 50.9479987,25.041963 50.2572882,30.3052623 L40.3650002,31 L34.4369564,31 L22,30.6891595 Z M39,24.5264284 C40.3485355,26.4684113 41.945133,27.2669169 43.7897925,26.9219449 C45.634452,26.576973 47.0378545,25.7784675 48,24.5264284 C47.1360677,22.7730387 45.6668294,21.9323135 43.5922852,22.0042529 C41.5177409,22.0761922 39.9869792,22.9169174 39,24.5264284 Z M36,24.9625218 C35.5447632,23.8509636 34.0641585,22.9509952 31.5581858,22.2626165 C29.0522132,21.5742379 27.1994846,22.239159 26,24.2573799 C26.3860873,25.9921771 27.8885712,26.9038247 30.5074514,26.9923227 C33.1263317,27.0808206 34.9571812,26.4042204 36,24.9625218 Z" id="Combined-Shape" fill="#0073E6"></path>
            </g>
        </g>
    </g>
</svg>