<?xml version="1.0" encoding="UTF-8"?>
<svg width="218px" height="154px" viewBox="0 0 218 154" version="1.1" xmlns="http://www.w3.org/2000/svg" xmlns:xlink="http://www.w3.org/1999/xlink">
    <!-- Generator: Sketch 52.5 (67469) - http://www.bohemiancoding.com/sketch -->
    <title>ill_BonusCard_template_small</title>
    <desc>Created with Sketch.</desc>
    <g id="Belarus" stroke="none" stroke-width="1" fill="none" fill-rule="evenodd">
        <g id="Corp_BelMir_000_UI_illustration" transform="translate(-603.000000, -1730.000000)">
            <g id="ill_BonusCard_template_small" transform="translate(603.000000, 1730.000000)">
                <g id="Group-4">
                    <rect id="Combined-Shape" fill="#0073E6" x="0" y="0" width="218" height="154" rx="10"></rect>
                    <g id="Group-3" transform="translate(156.000000, 16.000000)">
                        <g id="cube">
                            <path d="M42.8092683,1.65488196 C42.199039,1.38518122 41.2916026,1.03881083 40.0507702,0.696945193 C38.8104328,0.356057274 37.8534007,0.189141293 37.1891142,0.108186121 C36.4951057,0.0233287782 35.8242386,0.383394415 35.5159109,1.00394856 C35.2160099,1.60836524 34.8387354,2.50518886 34.4940546,3.72176531 C34.1498691,4.93834161 34.0014428,5.89816612 33.9402969,6.56802526 C33.8781544,7.25597529 34.2623662,7.90711553 34.9008285,8.18951972 C35.5115534,8.45873137 36.417999,8.80510207 37.6578406,9.14696802 C38.8986732,9.48834472 39.8566961,9.65526039 40.5209826,9.73621556 C41.2154865,9.82107275 41.8863537,9.46051818 42.1946813,8.84045296 C42.494087,8.23603644 42.8713614,7.33921282 43.2160422,6.12263637 C43.5607231,4.90605992 43.7091494,3.94623541 43.7702953,3.27637626 C43.8329333,2.58793715 43.4477306,1.93728615 42.8092683,1.65488196" id="Cube-4" fill="#17C8F0" transform="translate(38.855338, 4.922195) rotate(1.000000) translate(-38.855338, -4.922195) "></path>
                            <path d="M32.75424,6.1613801 C32.645306,5.51533747 32.4307001,4.59413826 32.0060987,3.43828421 C31.5810146,2.28195419 31.1481038,1.43890481 30.8121715,0.873871357 C30.4670683,0.294081469 29.7876956,-0.00708139834 29.1192916,0.125961571 C28.4798647,0.253282191 27.5607936,0.485433804 26.3799193,0.907157812 C25.1995276,1.32983388 24.3441478,1.73193564 23.7708237,2.03872777 C23.1704517,2.35933547 22.8447532,3.01932124 22.9565791,3.68297892 C23.0655132,4.32902155 23.2801192,5.24974465 23.7052032,6.40655077 C24.1298046,7.56240483 24.5627153,8.40545421 24.8986477,8.97048766 C25.2437507,9.55075366 25.9226407,9.85144057 26.5915276,9.71839745 C27.2304716,9.59107698 28.1490596,9.35940163 29.329451,8.93767777 C30.5103256,8.51500155 31.3666714,8.11242339 31.9399955,7.80563125 C32.5403675,7.48502355 32.8655831,6.82503793 32.75424,6.1613801" id="Cube-3" fill="#00CD52" transform="translate(27.855338, 4.922194) rotate(1.000000) translate(-27.855338, -4.922194) "></path>
                            <path d="M20.2302749,1.65488197 C19.6200209,1.38518124 18.7125478,1.03881086 17.4721607,0.696945085 C16.2317732,0.356057181 15.2747024,0.189141213 14.610389,0.10818605 C13.9158571,0.0233288706 13.2449629,0.383394516 12.9371181,1.00394851 C12.6372049,1.6083652 12.2599153,2.50518881 11.9152205,3.72176527 C11.5705257,4.93834173 11.4225889,5.89816609 11.3614405,6.56802523 C11.2988001,7.25597541 11.6835229,7.9071155 12.3220109,8.18951968 C12.9322651,8.45873147 13.8387473,8.80510217 15.0786391,9.1469681 C16.3200172,9.48834462 17.2775834,9.65526044 17.9418968,9.7362156 C18.6364287,9.82107278 19.3078185,9.46051805 19.6156631,8.84045298 C19.9155763,8.2360363 20.2928659,7.33921268 20.6375607,6.12263622 C20.9817601,4.90605992 21.1301923,3.94623541 21.1913407,3.27637626 C21.2539813,2.58793715 20.8692584,1.937286 20.2302749,1.65488197" id="Cube-2" fill="#FFBC16" transform="translate(16.276391, 4.922195) rotate(1.000000) translate(-16.276391, -4.922195) "></path>
                            <path d="M10.1753149,6.1613801 C10.0663841,5.51533746 9.85130181,4.5941384 9.42671322,3.43828434 L9.42719613,3.43828419 C9.00212479,2.28195417 8.56922711,1.43890478 8.23282195,0.873871481 C7.8882121,0.294081439 7.20885983,-0.00708143486 6.540476,0.125961528 C5.90058543,0.253282293 4.98202488,0.485433747 3.80070323,0.907157894 C2.62083,1.3298338 1.76499302,1.7319357 1.19168623,2.03872783 C0.591815224,2.35933537 0.266126464,3.01932114 0.377466152,3.68297897 C0.486396925,4.3290216 0.701479398,5.24974455 1.12606768,6.40655083 C1.55065627,7.56240489 1.98355395,8.40545428 2.3199591,8.97048758 C2.66505171,9.55075358 3.34392122,9.8514405 4.01278796,9.71839738 C4.65171272,9.59107692 5.57027312,9.35940157 6.75014605,8.93767788 C7.93146799,8.51500152 8.78730512,8.11242351 9.36109482,7.80563123 C9.96096583,7.48502369 10.2866546,6.82503792 10.1753149,6.1613801" id="Cube-1" fill="#FF3744" transform="translate(5.276391, 4.922194) rotate(1.000000) translate(-5.276391, -4.922194) "></path>
                        </g>
                        <g id="smile-1" transform="translate(6.000000, 11.000000)" fill="#FFFFFF">
                            <ellipse id="Oval" transform="translate(2.674175, 1.086581) rotate(11.000000) translate(-2.674175, -1.086581) " cx="2.6741747" cy="1.08658071" rx="1" ry="1"></ellipse>
                            <ellipse id="Oval-Copy" transform="translate(7.403239, 1.086581) rotate(11.000000) translate(-7.403239, -1.086581) " cx="7.40323874" cy="1.08658071" rx="1" ry="1"></ellipse>
                            <path d="M0.916214807,6.39092178 C0.663535798,6.2619088 0.563284671,5.95248631 0.692297649,5.6998073 C0.821310626,5.44712829 1.13073312,5.34687716 1.38341213,5.47589014 C2.99202984,6.29721899 4.40573195,6.5523374 5.63452399,6.26381267 C6.9023557,5.96612129 7.83698325,5.48800806 8.44938309,4.84017191 C8.64427792,4.63399956 8.9694071,4.62485732 9.17557945,4.81975215 C9.3817518,5.01464697 9.39089404,5.33977616 9.19599921,5.5459485 C8.43169814,6.35447559 7.31916447,6.92359756 5.86937465,7.26401335 C4.38054516,7.61359579 2.72615671,7.31504284 0.916214807,6.39092178 Z" id="Path-5" fill-rule="nonzero" transform="translate(4.986198, 6.042616) rotate(11.000000) translate(-4.986198, -6.042616) "></path>
                            <path d="M1.14232633,5.69968011 L2.1114912,6.04067234 C1.61537357,7.45073312 1.72755603,7.99279979 2.25554344,8.0645366 C2.84038082,8.14399753 3.13060741,7.7349764 3.15029908,6.48314044 L4.17757465,6.49929972 C4.14948365,8.28509678 3.45467439,9.26430297 2.11722274,9.08258553 C0.722921115,8.89314397 0.462120698,7.63295406 1.14232633,5.69968011 Z" id="Path-6" fill-rule="nonzero" transform="translate(2.479877, 7.401886) rotate(11.000000) translate(-2.479877, -7.401886) "></path>
                        </g>
                        <g id="smile-2" transform="translate(29.000000, 10.000000)" fill="#FFFFFF">
                            <ellipse id="Oval-Copy-2" transform="translate(1.046940, 1.227950) rotate(11.000000) translate(-1.046940, -1.227950) " cx="1.04694031" cy="1.22794972" rx="1" ry="1"></ellipse>
                            <path d="M0.305357874,7.30138622 C0.0626694488,7.15443943 -0.0149444823,6.83857768 0.132002306,6.59588926 C0.278949095,6.35320084 0.594810844,6.2755869 0.837499269,6.42253369 C2.3994083,7.36826284 3.75546515,7.67480181 4.91866299,7.3760031 C6.13103099,7.06457371 7.01954156,6.54723451 7.60102112,5.83026477 C7.77973019,5.60991482 8.10323144,5.57615821 8.32358139,5.75486728 C8.54393134,5.93357634 8.57768794,6.25707759 8.39897888,6.47742754 C7.66777915,7.37900364 6.58727079,8.0081344 5.17428021,8.37109911 C3.71211948,8.7466945 2.0848143,8.37883937 0.305357874,7.30138622 Z" id="Path-5-Copy" fill-rule="nonzero"></path>
                            <path d="M6.17406477,1.89234559 C5.9805457,2.09980981 5.65548452,2.11111458 5.44802031,1.91759551 C5.24055609,1.72407644 5.22925132,1.39901526 5.42277039,1.19155105 L5.98746271,0.586166536 C6.18098178,0.378702322 6.50604295,0.36739755 6.71350717,0.56091662 C6.92097138,0.75443569 6.93227615,1.07949687 6.73875708,1.28696108 L6.17406477,1.89234559 Z" id="Path-7" fill-rule="nonzero" transform="translate(6.080764, 1.239256) rotate(11.000000) translate(-6.080764, -1.239256) "></path>
                        </g>
                    </g>
                </g>
            </g>
        </g>
    </g>
</svg>