<?xml version="1.0" encoding="UTF-8"?>
<svg width="101px" height="105px" viewBox="0 0 101 105" version="1.1" xmlns="http://www.w3.org/2000/svg" xmlns:xlink="http://www.w3.org/1999/xlink">
    <!-- Generator: Sketch 52.5 (67469) - http://www.bohemiancoding.com/sketch -->
    <title>ill_BonusCard_2side</title>
    <desc>Created with Sketch.</desc>
    <defs>
        <polygon id="path-1" points="20.6836817 24.7323232 97.9036584 24.4864742 100.008253 25.4397162 100.626996 27.2550162 100.66295 71.7260399 100.135343 73.804384 98.1563035 74.4651857 23.2023852 74.4232275 21.4718599 73.8038353 20.6733315 71.376685"></polygon>
        <polygon id="path-3" points="8.06818728 7.77774159 80.6927345 7.86546897 82.7390816 8.9430494 83.8249523 10.7885159 83.8488938 55.1362904 83.0038564 56.9697243 80.3339046 58.0134671 8.1809607 58.0131926 5.72833028 56.7374322 4.93340968 54.1566111 4.96761345 10.8643486 5.89722584 8.77357631"></polygon>
    </defs>
    <g id="Belarus" stroke="none" stroke-width="1" fill="none" fill-rule="evenodd">
        <g id="Corp_BelMir_000_UI_illustration" transform="translate(-94.000000, -2094.000000)">
            <g id="ill_BonusCard_2side" transform="translate(82.000000, 2084.000000)">
                <g id="Group-17" transform="translate(7.000000, 10.000000)">
                    <g id="Group" transform="translate(54.623860, 68.795706) rotate(5.000000) translate(-54.623860, -68.795706) translate(4.123860, 25.795706)">
                        <g id="Group-3-Copy" transform="translate(0.000000, 0.000000)">
                            <g id="Rectangle-7" transform="translate(0.000000, 0.000000)">
                                <mask id="mask-2" fill="white">
                                    <use xlink:href="#path-1"></use>
                                </mask>
                                <use id="Mask" fill="#0073E6" xlink:href="#path-1"></use>
                                <polygon fill="#202730" opacity="0.300000012" mask="url(#mask-2)" points="19.9771512 29.6402258 103.018949 29.6402258 103.018949 42.0390406 19.9771512 42.0390406"></polygon>
                            </g>
                        </g>
                        <text id="1234-5678-9102-3456-copy" font-family="CirceRoundedDM-Regular, Circe Rounded DM" font-size="4.70588235" font-weight="normal" letter-spacing="0.282352952" fill="#FFFFFF">
                            <tspan x="29" y="68">1234 5678 9102 345</tspan>
                            <tspan x="73.3952943" y="68" letter-spacing="0.338823538">6</tspan>
                        </text>
                        <path d="M33.2669666,52.4074431 L33.2669666,58.7365388" id="Line-Copy" stroke="#000000" stroke-width="0.784313725" stroke-linecap="square"></path>
                        <path d="M47.3975775,52.4074431 L47.3975775,58.7365388" id="Line-Copy-14" stroke="#000000" stroke-width="0.784313725" stroke-linecap="square"></path>
                        <path d="M37.5061499,52.4074431 L37.5061499,58.7365388" id="Line-Copy-15" stroke="#000000" stroke-width="0.784313725" stroke-linecap="square"></path>
                        <path d="M51.6367608,52.4074431 L51.6367608,58.7365388" id="Line-Copy-16" stroke="#000000" stroke-width="0.784313725" stroke-linecap="square"></path>
                        <path d="M42.4518637,52.4074431 L42.4518637,58.7365388" id="Line-Copy-17" stroke="#000000" stroke-width="0.784313725" stroke-linecap="square"></path>
                        <path d="M56.5824746,52.4074431 L56.5824746,58.7365388" id="Line-Copy-18" stroke="#000000" stroke-width="0.784313725" stroke-linecap="square"></path>
                        <path d="M36.0930888,52.7677238 L36.0930888,58.3767553" id="Line-Copy-19" stroke="#000000" stroke-width="1.56862745" stroke-linecap="square"></path>
                        <path d="M50.2236997,52.7677238 L50.2236997,58.3767553" id="Line-Copy-20" stroke="#000000" stroke-width="1.56862745" stroke-linecap="square"></path>
                        <path d="M40.332272,52.7677238 L40.332272,58.3767553" id="Line-Copy-21" stroke="#000000" stroke-width="1.56862745" stroke-linecap="square"></path>
                        <path d="M54.462883,52.7677238 L54.462883,58.3767553" id="Line-Copy-22" stroke="#000000" stroke-width="1.56862745" stroke-linecap="square"></path>
                        <path d="M45.2779859,52.7677238 L45.2779859,58.3767553" id="Line-Copy-23" stroke="#000000" stroke-width="1.56862745" stroke-linecap="square"></path>
                        <path d="M59.4085968,52.7677238 L59.4085968,58.3767553" id="Line-Copy-24" stroke="#000000" stroke-width="1.56862745" stroke-linecap="square"></path>
                    </g>
                    <path d="M41.0462328,87.188949 C45.6993988,87.2328476 89.3973472,88.0708377 88.7570539,93.1951043 C88.1167605,98.3193709 67.9137128,97.3094439 55.6467142,97.1656577 C43.3797155,97.0218715 25.8130479,95.9831873 26.0552278,92.3016113 C26.2974077,88.6200353 66.3778368,86.1043902 70.5411232,85.9140446" id="Path-3" stroke="#F8E71C" stroke-width="1.56862745" transform="translate(57.408385, 91.627311) rotate(5.000000) translate(-57.408385, -91.627311) "></path>
                    <g id="Group-4" transform="translate(4.000000, 0.000000)">
                        <mask id="mask-4" fill="white">
                            <use xlink:href="#path-3"></use>
                        </mask>
                        <use id="card" fill="#0073E6" transform="translate(44.391152, 32.895604) rotate(12.000000) translate(-44.391152, -32.895604) " xlink:href="#path-3"></use>
                        <g id="cube" mask="url(#mask-4)">
                            <g transform="translate(45.810623, 27.089031) rotate(12.000000) translate(-45.810623, -27.089031) translate(16.810623, 20.089031)">
                                <path d="M56.0226349,2.2061845 C55.2239208,1.84665616 54.0362222,1.38487161 52.4122118,0.928951554 C50.7888497,0.47433415 49.5363188,0.251587314 48.6669376,0.143471954 C47.7586579,0.030146197 46.8808452,0.509528647 46.4775924,1.3360661 C46.085361,2.14110966 45.5919912,3.3356479 45.1414073,4.95615433 C44.6914717,6.57666076 44.4976199,7.85521855 44.4178728,8.74753823 C44.3368289,9.66395705 44.8399113,10.5315229 45.6755789,10.9079855 C46.4749413,11.2668625 47.6613433,11.7286471 49.2840571,12.1845672 C50.9080675,12.6398359 52.161895,12.8625827 53.0312762,12.9706981 C53.9402042,13.0840238 54.8180169,12.60399 55.2212697,11.7781039 C55.6128527,10.9730604 56.1062226,9.77852213 56.5568065,8.15801569 C57.0073904,6.53750926 57.2012422,5.25895147 57.2809893,4.36663179 C57.3626816,3.44956164 56.8583025,2.58264715 56.0226349,2.2061845" id="Cube-4" fill="#17C8F0" transform="translate(50.849486, 6.557077) rotate(1.000000) translate(-50.849486, -6.557077) "></path>
                                <path d="M42.865599,8.20984799 C42.7227731,7.34918556 42.4415425,6.1219334 41.8853959,4.58200268 C41.3286174,3.04143772 40.7617244,1.91820253 40.3218603,1.16536259 C39.8699884,0.39286128 38.9807739,-0.00860725794 38.1060918,0.168350717 C37.2693295,0.337697594 36.0666413,0.646579337 34.5214103,1.20789047 C32.9768113,1.77047009 31.8575451,2.30577491 31.1073647,2.71422965 C30.3217925,3.14107754 29.8958227,4.02013624 30.0424404,4.90426551 C30.1852663,5.76492793 30.4664969,6.99154585 31.0232754,8.53274505 C31.579422,10.0726758 32.1463149,11.195911 32.5861791,11.9487509 C33.0380509,12.7218865 33.9266335,13.1227208 34.8019476,12.9457628 C35.6380779,12.7764159 36.8401341,12.4681684 38.3847331,11.9068573 C39.9299641,11.3442777 41.0504943,10.8083386 41.8006747,10.3998838 C42.5862469,9.97303596 43.0115846,9.09397727 42.865599,8.20984799" id="Cube-3" fill="#00CD52" transform="translate(36.453926, 6.557077) rotate(1.000000) translate(-36.453926, -6.557077) "></path>
                                <path d="M26.4737939,2.2061845 C25.6750475,1.84665616 24.4873008,1.38487161 22.8638731,0.928951551 C21.2404454,0.474334148 19.9878639,0.251587312 19.1184475,0.143471952 C18.2094828,0.0301461993 17.3316346,0.50952865 16.9290139,1.3360661 C16.5367667,2.14110966 16.0433769,3.3356479 15.5927748,4.95615433 C15.1421726,6.57666077 14.9489614,7.85521855 14.869211,8.74753823 C14.7875155,9.66395706 15.2912665,10.5315229 16.1269679,10.9079855 C16.9257143,11.2668625 18.1121643,11.7286471 19.7349437,12.1845672 C21.359668,12.6398359 22.6128979,12.8625827 23.4823143,12.9706981 C24.391279,13.0840238 25.2697755,12.60399 25.6723962,11.7781039 C26.0646435,10.9730604 26.5580332,9.77852212 27.0086354,8.15801569 C27.4585892,6.53750926 27.6524487,5.25895147 27.7321991,4.36663179 C27.8138947,3.44956164 27.3101436,2.58264715 26.4737939,2.2061845" id="Cube-2" fill="#FFBC16" transform="translate(21.300705, 6.557077) rotate(1.000000) translate(-21.300705, -6.557077) "></path>
                                <path d="M13.3168472,8.20984799 C13.1740257,7.34918556 12.8921716,6.12193341 12.3360418,4.58200268 L12.3366737,4.58200268 C11.7799119,3.04143772 11.2130361,1.91820253 10.7725532,1.16536259 C10.3213269,0.392861279 9.43213913,-0.00860725879 8.55748341,0.168350716 C7.72011431,0.337697596 6.51809429,0.646579335 4.97227788,1.20789048 C3.4283574,1.77047009 2.30849293,2.30577491 1.55833511,2.71422965 C0.773418516,3.14107754 0.34746161,4.02013623 0.493442892,4.90426551 C0.636264432,5.76492794 0.918118541,6.99154585 1.47424837,8.53274506 C2.03037821,10.0726758 2.59725406,11.195911 3.0377369,11.9487509 C3.48959518,12.7218865 4.378151,13.1227208 5.2534387,12.9457628 C6.08954384,12.7764159 7.29156386,12.4681684 8.83548434,11.9068573 C10.3813007,11.3442777 11.5011652,10.8083386 12.251955,10.3998838 C13.0368716,9.97303596 13.4628285,9.09397727 13.3168472,8.20984799" id="Cube-1" fill="#FF3744" transform="translate(6.905145, 6.557077) rotate(1.000000) translate(-6.905145, -6.557077) "></path>
                            </g>
                        </g>
                        <g id="smile-1" mask="url(#mask-4)">
                            <g transform="translate(28.643533, 37.250041) rotate(12.000000) translate(-28.643533, -37.250041) translate(23.143533, 31.250041)">
                                <ellipse id="Oval" stroke="none" fill="#FFFFFF" fill-rule="evenodd" transform="translate(2.143926, 1.481342) rotate(11.000000) translate(-2.143926, -1.481342) " cx="2.14392571" cy="1.4813423" rx="1.13475314" ry="1.11431267"></ellipse>
                                <ellipse id="Oval-Copy" stroke="none" fill="#FFFFFF" fill-rule="evenodd" transform="translate(8.199902, 1.481342) rotate(11.000000) translate(-8.199902, -1.481342) " cx="8.19990182" cy="1.4813423" rx="1.13475314" ry="1.11431267"></ellipse>
                                <path d="M0.173562048,8.02802208 C2.38111237,9.24166813 4.35449945,9.6420142 6.0937233,9.22906029 C7.83294715,8.81610638 9.1387007,8.11969119 10.010984,7.13981474" id="Path-5" stroke="#FFFFFF" stroke-width="2.01451503" fill="none" stroke-linecap="round" transform="translate(5.092273, 8.263067) rotate(11.000000) translate(-5.092273, -8.263067) "></path>
                                <path d="M0.780614699,7.99308668 C0.051551693,10.257934 0.304893565,11.4866234 1.54064031,11.6791548 C2.77638706,11.8716862 3.39782786,10.9351181 3.40496271,8.86945032" id="Path-6" stroke="#FFFFFF" stroke-width="2.01451503" fill="none" transform="translate(1.889894, 9.848432) rotate(11.000000) translate(-1.889894, -9.848432) "></path>
                            </g>
                        </g>
                        <g id="smile-2" mask="url(#mask-4)">
                            <g transform="translate(57.908213, 42.301678) rotate(12.000000) translate(-57.908213, -42.301678) translate(52.408213, 37.301678)">
                                <ellipse id="Oval-Copy-2" stroke="none" fill="#FFFFFF" fill-rule="evenodd" transform="translate(1.386929, 1.506664) rotate(11.000000) translate(-1.386929, -1.506664) " cx="1.3869287" cy="1.50666439" rx="1.13544039" ry="1.13264804"></ellipse>
                                <path d="M0.756997014,8.4194577 C2.97022523,9.6606554 4.94632185,10.074388 6.68528688,9.6606554 C8.42425191,9.24692283 9.72847568,8.54357747 10.5979582,7.55061932" id="Path-5-Copy" stroke="#FFFFFF" stroke-width="2.01451503" fill="none" stroke-linecap="round"></path>
                                <path d="M7.9770252,1.60211862 L8.13389477,1.43895538" id="Path-7" stroke="#FFFFFF" stroke-width="2.01451503" fill="none" stroke-linecap="round" transform="translate(8.055460, 1.520537) rotate(11.000000) translate(-8.055460, -1.520537) "></path>
                            </g>
                        </g>
                    </g>
                </g>
            </g>
        </g>
    </g>
</svg>