<?xml version="1.0" encoding="UTF-8"?>
<svg width="113px" height="117px" viewBox="0 0 113 117" version="1.1" xmlns="http://www.w3.org/2000/svg" xmlns:xlink="http://www.w3.org/1999/xlink">
    <!-- Generator: Sketch 52.5 (67469) - http://www.bohemiancoding.com/sketch -->
    <title>ill_phones_2</title>
    <desc>Created with Sketch.</desc>
    <g id="Belarus" stroke="none" stroke-width="1" fill="none" fill-rule="evenodd">
        <g id="Corp_BelMir_000_UI_illustration" transform="translate(-1135.000000, -2089.000000)">
            <g id="ill_phones_2" transform="translate(1130.000000, 2084.000000)">
                <g id="Group-13" transform="translate(90.365015, 48.046677) rotate(6.000000) translate(-90.365015, -48.046677) translate(66.365015, 6.546677)">
                    <polygon id="Path-94-Copy" fill="#172029" points="0.107603315 0.991655323 47.2768522 0.991655323 47.2768522 81.4383019 0.107603315 82.3586097"></polygon>
                    <polygon id="Path-95" fill="#FFFFFF" points="5.03541886 11.4110984 41.8968171 12.184108 41.2306866 66.8349659 4.16141793 66.8349659"></polygon>
                    <polygon id="Path-95-Copy-6" fill="#B9EEFA" opacity="0.400000006" points="6.94277366 14.4110984 39.8968171 15.1004246 39.3012973 63.8349659 6.16141793 63.8349659"></polygon>
                    <polygon id="Path-96" fill="#1F84F6" points="25.1530109 72.1530567 25.2111348 75.6907503 19.5021342 75.6770687 19.3149787 72.2714472"></polygon>
                    <polygon id="Path-96-Copy" fill="#FF3744" transform="translate(22.151364, 6.385909) rotate(-180.000000) translate(-22.151364, -6.385909) " points="22.7293549 5.79629367 22.7409797 6.9755249 21.5991796 6.97096436 21.5617485 5.83575718"></polygon>
                </g>
                <g id="Group-5" transform="translate(40.033442, 74.322175) rotate(-15.000000) translate(-40.033442, -74.322175) translate(15.533442, 30.822175)">
                    <polygon id="Path-94-Copy-3" fill="#00BE52" points="3.63797881e-12 -7.27595761e-12 48.3484802 -7.27595761e-12 48.3484802 85.1102203 3.63797881e-12 86.0838793"></polygon>
                    <polygon id="Path-95-Copy" fill="#FFFFFF" points="5.61823836 10.613081 43.6315553 11.4354316 42.9446082 69.5746422 4.71692489 69.5746422"></polygon>
                    <polygon id="Path-95-Copy-5" fill="#B9EEFA" points="8.47927055 14.613081 40.6315553 15.3238537 40.0505242 65.5746422 7.71692489 65.5746422"></polygon>
                    <polygon id="Path-96-Copy-2" fill="#FFBC16" points="27.0525694 74.2915671 27.1223181 79.008492 20.2715174 78.9902498 20.0469308 74.4494211"></polygon>
                    <polygon id="Path-96-Copy-3" fill="#FF3744" transform="translate(23.699653, 4.007711) rotate(-180.000000) translate(-23.699653, -4.007711) " points="24.2776437 3.41809522 24.2892685 4.59732645 23.1474684 4.59276591 23.1100373 3.45755873"></polygon>
                </g>
            </g>
        </g>
    </g>
</svg>