<?xml version="1.0" encoding="UTF-8"?>
<svg width="98px" height="113px" viewBox="0 0 98 113" version="1.1" xmlns="http://www.w3.org/2000/svg" xmlns:xlink="http://www.w3.org/1999/xlink">
    <!-- Generator: Sketch 52.5 (67469) - http://www.bohemiancoding.com/sketch -->
    <title>ill_number_3</title>
    <desc>Created with Sketch.</desc>
    <g id="Belarus" stroke="none" stroke-width="1" fill="none" fill-rule="evenodd">
        <g id="Corp_BelMir_000_UI_illustration" transform="translate(-1100.000000, -2305.000000)">
            <g id="ill_number_3" transform="translate(1088.000000, 2294.000000)">
                <g id="Group">
                    <g id="Group-7" transform="translate(25.743119, 11.871560)">
                        <path d="M20.1178838,45.1883499 L5,34.2526292 C8.31001005,21.4406537 15.8668719,13.242957 27.6705857,9.65953915 C39.4742995,6.07612135 51.2280231,8.29591846 62.9317566,16.3189305 L52.1939994,27.7684072 C45.014707,24.4177043 38.6376061,24.1580931 33.0626968,26.9895734 C27.4877875,29.8210537 23.1728498,35.8873125 20.1178838,45.1883499 Z" id="Path-12" fill="#00BF5A"></path>
                        <path d="M56.9642838,47 C77.7023396,54.2390385 86.0366621,66.7006851 81.9672512,84.3849397 C79.1665585,96.5557828 69.6418322,109.222755 49.0840629,111.314692 C41.8004763,112.055862 33.1057886,110.547256 23,106.788874 L31.9596067,83.3921927 C43.8204339,84.9007089 50.738873,83.2566907 52.7149242,78.4601383 C54.6909753,73.6635859 50.2537013,69.0648074 39.4031023,64.6638027 L56.9642838,47 Z" id="Path-13" fill="#17C8F0"></path>
                        <path d="M9.41251599,16.6966609 L21.484474,27.7355379 C32.8599729,18.0229426 40.5403693,16.6248654 44.5256631,23.5413064 C48.510957,30.4577473 43.883803,34.6055482 30.6442011,35.9847092 L31.129143,51.4525503 C43.7531094,53.0475277 49.3247823,57.1398699 47.8441618,63.7295769 C45.6232311,73.6141374 34.5843541,72.7680685 29.003653,69.2406321 C25.2831856,66.8890078 21.840442,63.2244291 18.6754222,58.2468959 L0,67.6271684 C5.90184614,80.8031431 14.1948686,89.1370073 24.8790673,92.628761 C51.2097986,101.234032 70.3704202,80.7698551 71.5663332,67.115142 C72.5026838,56.4240647 68.3832571,47.5721553 59.2080531,40.5594138 C66.3540676,30.859716 67.0298909,21.012128 61.235523,11.0166499 C54.495623,-0.609902561 36.2197433,-2.53334913 24.9693491,2.9029012 C17.4690863,6.52706808 12.2834752,11.124988 9.41251599,16.6966609 Z" id="Path-4" fill="#FF4D17"></path>
                    </g>
                </g>
                <polyline id="Path-18-Copy-18" stroke="#17C8F0" stroke-width="5" stroke-linecap="round" stroke-linejoin="round" transform="translate(95.638546, 58.726833) rotate(-554.533053) translate(-95.638546, -58.726833) " points="82.7524773 63.2448783 91.3152257 54.0850886 100.001318 63.3685779 108.524614 54.2413943"></polyline>
                <path d="M25.3981513,93.3760962 L31.5118019,104.319279 C32.0505232,105.283568 31.7055324,106.501999 30.7412435,107.04072 C30.4431141,107.207277 30.1073022,107.294721 29.7658023,107.294721 L17.5385012,107.294721 C16.4339317,107.294721 15.5385012,106.39929 15.5385012,105.294721 C15.5385012,104.953221 15.6259451,104.617409 15.7925016,104.319279 L21.9061522,93.3760962 C22.4448734,92.4118073 23.663304,92.0668165 24.6275929,92.6055378 C24.9508186,92.7861149 25.2175742,93.0528706 25.3981513,93.3760962 Z" id="Triangle-Copy-10" fill="#17C8F0" transform="translate(23.652152, 98.772775) rotate(-310.107109) translate(-23.652152, -98.772775) "></path>
                <path d="M35.0264568,59.1670196 C35.5570632,60.6060836 35.8296606,61.752892 35.9703479,62.5567976 C36.1141119,63.3825984 35.7261565,64.2027939 35.001005,64.5993356 C34.3073647,64.979469 33.2717914,65.4773728 31.8413517,65.999664 C30.4123322,66.5204408 29.2984108,66.8056114 28.5234148,66.9620957 C27.7120439,67.1257448 26.8832576,66.7494859 26.4563276,66.0266855 C26.0401586,65.3224985 25.5038976,64.2726315 24.9732911,62.8335675 C24.4426356,61.3930206 24.1699256,60.2472534 24.0296742,59.44319 C23.8859102,58.6173891 24.2734298,57.7973515 24.9988554,57.4002103 C25.6917856,57.0208341 26.726923,56.5230881 28.1558935,56.0008286 C29.5868182,55.4798624 30.7005779,55.1942501 31.4770432,55.037734 C32.2875424,54.8744006 33.1170878,55.251385 33.5432586,55.9734599 C33.959266,56.6772051 34.4961246,57.7273561 35.0264568,59.1670196 Z" id="Cube" fill="#06C92E"></path>
            </g>
        </g>
    </g>
</svg>