<?xml version="1.0" encoding="UTF-8"?>
<svg width="74px" height="111px" viewBox="0 0 74 111" version="1.1" xmlns="http://www.w3.org/2000/svg" xmlns:xlink="http://www.w3.org/1999/xlink">
    <!-- Generator: Sketch 52.5 (67469) - http://www.bohemiancoding.com/sketch -->
    <title>ill_phone_card</title>
    <desc>Created with Sketch.</desc>
    <defs>
        <path d="M2.78640608,0.0867355666 L30.1010926,0.0867355666 C31.0639329,0.0867355666 31.413082,0.186987227 31.765082,0.375238887 C32.117082,0.563490547 32.3933337,0.839742207 32.5815853,1.19174221 C32.769837,1.54374221 32.8700886,1.89289134 32.8700886,2.85573158 L32.8700886,18.1719062 C32.8700886,19.1347465 32.769837,19.4838956 32.5815853,19.8358956 C32.3933337,20.1878956 32.117082,20.4641473 31.765082,20.6523989 C31.413082,20.8406506 31.0639329,20.9409022 30.1010926,20.9409022 L2.78640608,20.9409022 C1.82356584,20.9409022 1.4744167,20.8406506 1.1224167,20.6523989 C0.770416702,20.4641473 0.494165042,20.1878956 0.305913382,19.8358956 C0.117661722,19.4838956 0.0174100622,19.1347465 0.0174100622,18.1719062 L0.0174100622,2.85573158 C0.0174100622,1.89289134 0.117661722,1.54374221 0.305913382,1.19174221 C0.494165042,0.839742207 0.770416702,0.563490547 1.1224167,0.375238887 C1.4744167,0.186987227 1.82356584,0.0867355666 2.78640608,0.0867355666 Z" id="path-1"></path>
    </defs>
    <g id="Belarus" stroke="none" stroke-width="1" fill="none" fill-rule="evenodd">
        <g id="Corp_BelMir_000_UI_illustration" transform="translate(-277.000000, -2092.000000)">
            <g id="ill_phone_card" transform="translate(250.000000, 2084.000000)">
                <g id="Group-13" transform="translate(66.625549, 66.913135) rotate(9.000000) translate(-66.625549, -66.913135) translate(34.125549, 12.413135)">
                    <polygon id="Path-94-Copy" fill="#0073E6" points="0.627381327 0.265430846 58.6273813 0.265430846 58.6273813 103.08913 0.627381327 104.265431"></polygon>
                    <polygon id="Path-95" fill="#FFFFFF" points="8.07175712 12.0800258 53.983176 13.0842265 53.1535006 84.0800258 6.98317598 84.0800258"></polygon>
                    <polygon id="Path-95-Copy-3" fill="#B9EEFA" points="10.9327893 16.0800258 50.983176 16.9726487 50.2594166 80.0800258 9.98317598 80.0800258"></polygon>
                    <polygon id="Path-96" fill="#FFBC16" points="33.8797664 89.7115713 33.9586299 95.7115713 26.2125655 95.688367 25.9586299 89.912364"></polygon>
                    <polygon id="Path-96-Copy" fill="#FF3744" transform="translate(30.489337, 6.567980) rotate(-180.000000) translate(-30.489337, -6.567980) " points="31.4696213 5.5679798 31.4893371 7.5679798 29.552821 7.56024503 29.4893371 5.63491071"></polygon>
                </g>
                <g id="card-copy" transform="translate(65.939420, 60.951896) rotate(9.000000) translate(-65.939420, -60.951896) translate(49.439420, 50.451896)">
                    <mask id="mask-2" fill="white">
                        <use xlink:href="#path-1"></use>
                    </mask>
                    <use id="card" fill="#1F84F6" xlink:href="#path-1"></use>
                    <g id="cube" mask="url(#mask-2)">
                        <g transform="translate(4.406858, 5.129369)">
                            <path d="M23.3630712,0.917668877 C23.0299919,0.768120882 22.5346973,0.576041708 21.8574486,0.386409999 C21.1804702,0.197320177 20.6581344,0.104680923 20.2955806,0.0597210129 C19.916805,0.0125942991 19.5507244,0.212031326 19.3825421,0.555874925 C19.2189563,0.890776954 19.013186,1.38770906 18.825251,2.06184149 C18.6375863,2.73597391 18.5567218,3.26785243 18.5234489,3.63905535 C18.4896349,4.02028344 18.6994185,4.38117836 19.047908,4.5377703 C19.3812576,4.68704733 19.8760115,4.87912653 20.5527195,5.06875827 C21.2299682,5.25811903 21.7528447,5.35075825 22.1153986,5.39571816 C22.4944445,5.44284487 22.8605251,5.24313689 23.0287075,4.89956424 C23.1920229,4.56466222 23.3977931,4.06773012 23.5857282,3.39359769 C23.7736632,2.71946525 23.8545278,2.18758674 23.8878006,1.81638381 C23.921885,1.43488476 23.7115607,1.07426081 23.3630712,0.917668877" id="Cube-4" fill="#17C8F0" transform="translate(21.205648, 2.727716) rotate(1.000000) translate(-21.205648, -2.727716) "></path>
                            <path d="M17.8761133,3.41514703 C17.8165665,3.05711741 17.6993077,2.54659039 17.4674071,1.90599527 C17.2352429,1.26513631 16.9988532,0.797885092 16.8154313,0.484714549 C16.6270022,0.163365173 16.2561826,-0.00362815059 15.891413,0.0700014241 C15.5424571,0.140464129 15.0408975,0.268979381 14.3964836,0.502510439 C13.7523333,0.736569167 13.285559,0.95927403 12.9727058,1.12920311 C12.6450929,1.3067843 12.467436,1.67247694 12.5285637,2.04026861 C12.5881105,2.39829823 12.7053693,2.90856141 12.9375335,3.5496842 C13.1694341,4.19027933 13.4058238,4.65753055 13.5892457,4.97070109 C13.7776747,5.29231431 14.1482308,5.45904381 14.513264,5.38541422 C14.8619564,5.31495153 15.3632524,5.18670013 16.0074026,4.95316908 C16.6518165,4.71911034 17.119118,4.49614161 17.4319712,4.32621254 C17.7595841,4.14863134 17.9369774,3.78293871 17.8761133,3.41514703" id="Cube-3" fill="#00CD52" transform="translate(15.202299, 2.727716) rotate(1.000000) translate(-15.202299, -2.727716) "></path>
                            <path d="M11.0403839,0.917668878 C10.7072912,0.768120883 10.2119766,0.576041711 9.53497085,0.38640999 C8.85796511,0.197320169 8.33560823,0.104680916 7.97303969,0.0597210068 C7.59397848,0.012594307 7.22788308,0.212031334 7.05996429,0.555874921 C6.89637192,0.89077695 6.69059334,1.38770906 6.50265069,2.06184149 C6.31470804,2.73597392 6.23411063,3.26785242 6.20083646,3.63905535 C6.16675068,4.02028345 6.37681308,4.38117836 6.72531672,4.5377703 C7.05840943,4.68704734 7.55318334,4.87912654 8.22991867,5.06875827 C8.90746514,5.25811902 9.4300924,5.35075826 9.79266094,5.39571817 C10.1717221,5.44284487 10.5380879,5.24313688 10.7060067,4.89956424 C10.8695991,4.56466221 11.0753777,4.06773011 11.2633203,3.39359767 C11.4509926,2.71946525 11.5318604,2.18758674 11.5651345,1.81638381 C11.5992203,1.43488476 11.3891579,1.0742608 11.0403839,0.917668878" id="Cube-2" fill="#FFBC16" transform="translate(8.882985, 2.727716) rotate(1.000000) translate(-8.882985, -2.727716) "></path>
                            <path d="M5.55346331,3.41514703 C5.4939183,3.05711741 5.37639951,2.5465904 5.14450583,1.90599528 L5.14476938,1.90599527 C4.91261216,1.26513631 4.67622959,0.79788509 4.49254972,0.48471456 C4.30438987,0.16336517 3.93358138,-0.00362815371 3.56882274,0.0700014205 C3.21961379,0.140464138 2.71833288,0.268979376 2.07367489,0.502510446 C1.42980753,0.73656916 0.962783658,0.959274035 0.649939899,1.12920311 C0.322600442,1.30678429 0.144948887,1.67247693 0.205811168,2.04026862 C0.265356172,2.39829824 0.382874985,2.9085614 0.614768637,3.54968421 C0.846662315,4.19027933 1.08304488,4.65753056 1.26672476,4.97070109 C1.45514815,5.2923143 1.8256931,5.4590438 2.19071529,5.38541421 C2.53939714,5.31495152 3.04067804,5.18670013 3.68454537,4.95316909 C4.32920338,4.71911034 4.79622727,4.49614162 5.10933458,4.32621254 C5.43667404,4.14863135 5.61432559,3.78293871 5.55346331,3.41514703" id="Cube-1" fill="#FF3744" transform="translate(2.879637, 2.727716) rotate(1.000000) translate(-2.879637, -2.727716) "></path>
                        </g>
                    </g>
                    <g id="smile-1" mask="url(#mask-2)">
                        <g transform="translate(8.085312, 11.164722)">
                            <circle id="Oval" stroke="none" fill="#FFFFFF" fill-rule="evenodd" transform="translate(0.894077, 0.616232) rotate(11.000000) translate(-0.894077, -0.616232) " cx="0.894076556" cy="0.616232118" r="1"></circle>
                            <circle id="Oval-Copy" stroke="none" fill="#FFFFFF" fill-rule="evenodd" transform="translate(3.419587, 0.616232) rotate(11.000000) translate(-3.419587, -0.616232) " cx="3.41958676" cy="0.616232118" r="1"></circle>
                            <path d="M0.0726919138,3.34059824 C0.992984158,3.84508874 1.81578984,4.0112646 2.54110895,3.83912582 C3.26642807,3.66698704 3.81104911,3.3770027 4.17497209,2.96917282" id="Path-5" stroke="#FFFFFF" stroke-width="0.739729918" fill="none" stroke-linecap="round" transform="translate(2.123832, 3.436994) rotate(11.000000) translate(-2.123832, -3.436994) "></path>
                            <path d="M0.325915683,3.3252465 C0.0214657666,4.26763942 0.12686934,4.77876618 0.642126402,4.8586268 C1.15738346,4.93848743 1.41669922,4.54872373 1.42007367,3.68933571" id="Path-6" stroke="#FFFFFF" stroke-width="0.739729918" fill="none" transform="translate(0.788187, 4.097029) rotate(11.000000) translate(-0.788187, -4.097029) "></path>
                        </g>
                    </g>
                    <g id="smile-2" mask="url(#mask-2)">
                        <g transform="translate(20.460807, 11.105142)">
                            <circle id="Oval-Copy-2" stroke="none" fill="#FFFFFF" fill-rule="evenodd" transform="translate(0.578388, 0.626766) rotate(11.000000) translate(-0.578388, -0.626766) " cx="0.57838778" cy="0.626766" r="1"></circle>
                            <path d="M0.315688776,3.50245873 C1.2386664,4.01879171 2.06275357,4.1909027 2.78795027,4.01879171 C3.51314698,3.84668072 4.0570445,3.55409203 4.41964286,3.14102564" id="Path-5-Copy" stroke="#FFFFFF" stroke-width="0.739729918" fill="none" stroke-linecap="round"></path>
                            <path d="M3.2014156,0.789722596 L3.5172854,0.475351303" id="Path-7" stroke="#FFFFFF" stroke-width="0.739729918" fill="none" stroke-linecap="round" transform="translate(3.359351, 0.632537) rotate(11.000000) translate(-3.359351, -0.632537) "></path>
                        </g>
                    </g>
                </g>
            </g>
        </g>
    </g>
</svg>