<?xml version="1.0" encoding="UTF-8"?>
<svg width="442px" height="286px" viewBox="0 0 442 286" version="1.1" xmlns="http://www.w3.org/2000/svg" xmlns:xlink="http://www.w3.org/1999/xlink">
    <!-- Generator: Sketch 52.5 (67469) - http://www.bohemiancoding.com/sketch -->
    <title>ill_BonusCard_template_big</title>
    <desc>Created with Sketch.</desc>
    <defs>
        <path d="M7.6916556,-3.10752092e-16 L112.308344,3.10752092e-16 C114.982901,-1.80555915e-16 115.952759,0.278476833 116.930537,0.801398111 C117.908315,1.32431939 118.675681,2.09168511 119.198602,3.06946289 C119.721523,4.04724067 120,5.01709938 120,7.6916556 L120,70.3083444 C120,72.9829006 119.721523,73.9527593 119.198602,74.9305371 C118.675681,75.9083149 117.908315,76.6756806 116.930537,77.1986019 C115.952759,77.7215232 114.982901,78 112.308344,78 L7.6916556,78 C5.01709938,78 4.04724067,77.7215232 3.06946289,77.1986019 C2.09168511,76.6756806 1.32431939,75.9083149 0.801398111,74.9305371 C0.278476833,73.9527593 1.2037061e-16,72.9829006 -2.07168062e-16,70.3083444 L2.07168062e-16,7.6916556 C-1.2037061e-16,5.01709938 0.278476833,4.04724067 0.801398111,3.06946289 C1.32431939,2.09168511 2.09168511,1.32431939 3.06946289,0.801398111 C4.04724067,0.278476833 5.01709938,1.80555915e-16 7.6916556,-3.10752092e-16 Z" id="path-1"></path>
    </defs>
    <g id="Belarus" stroke="none" stroke-width="1" fill="none" fill-rule="evenodd">
        <g id="Corp_BelMir_000_UI_illustration" transform="translate(-102.000000, -1598.000000)">
            <g id="ill_BonusCard_template_big" transform="translate(102.000000, 1598.000000)">
                <rect id="Rectangle" fill="#0073E6" x="0" y="0" width="442" height="286" rx="19.2"></rect>
                <g id="card-copy-5" transform="translate(306.000000, 10.000000)">
                    <mask id="mask-2" fill="white">
                        <use xlink:href="#path-1"></use>
                    </mask>
                    <use id="card" fill="#0073E6" xlink:href="#path-1"></use>
                    <g id="cube" mask="url(#mask-2)">
                        <g transform="translate(16.000000, 20.000000)">
                            <path d="M85.6185366,3.30976392 C84.3980779,2.77036244 82.5832052,2.07762165 80.1015404,1.39389039 C77.6208657,0.712114547 75.7068014,0.378282587 74.3782283,0.216372243 C72.9902115,0.0466575564 71.6484773,0.76678883 71.0318218,2.00789713 C70.4320197,3.21673048 69.6774709,5.01037771 68.9881092,7.44353062 C68.2997382,9.87668321 68.0028857,11.7963322 67.8805938,13.1360505 C67.7563088,14.5119506 68.5247325,15.8142311 69.801657,16.3790394 C71.0231068,16.9174627 72.8359979,17.6102041 75.3156812,18.293936 C77.7973464,18.9766894 79.7133922,19.3105208 81.0419653,19.4724311 C82.4309729,19.6421455 83.7727074,18.9210364 84.3893626,17.6809059 C84.9881739,16.4720729 85.7427227,14.6784256 86.4320845,12.2452727 C87.1214462,9.81211984 87.4182987,7.89247082 87.5405906,6.55275253 C87.6658667,5.1758743 86.8954611,3.8745723 85.6185366,3.30976392" id="Cube-4" fill="#17C8F0" transform="translate(77.710676, 9.844389) rotate(1.000000) translate(-77.710676, -9.844389) "></path>
                            <path d="M65.5084801,12.3227602 C65.290612,11.0306749 64.8614002,9.18827653 64.0121974,6.87656841 C63.1620291,4.56390839 62.2962077,2.87780962 61.6243429,1.74774271 C60.9341366,0.588162937 59.5753912,-0.0141627967 58.2385832,0.251923142 C56.9597294,0.506564382 55.1215871,0.970867609 52.7598385,1.81431562 C50.3990552,2.65966776 48.6882955,3.46387127 47.5416474,4.07745555 C46.3409034,4.71867094 45.6895063,6.03864248 45.9131582,7.36595783 C46.1310264,8.6580431 46.5602384,10.4994893 47.4104065,12.8131015 C48.2596092,15.1248097 49.1254307,16.8109084 49.7972954,17.9409753 C50.4875014,19.1015073 51.8452813,19.7028811 53.1830551,19.4367949 C54.4609431,19.182154 56.2981192,18.7188033 58.658902,17.8753555 C61.0206512,17.0300031 62.7333428,16.2248468 63.8799909,15.6112625 C65.0807349,14.9700471 65.7311662,13.6500759 65.5084801,12.3227602" id="Cube-3" fill="#00CD52" transform="translate(55.710676, 9.844389) rotate(1.000000) translate(-55.710676, -9.844389) "></path>
                            <path d="M40.4605497,3.30976394 C39.2400418,2.77036248 37.4250957,2.07762172 34.9443213,1.39389017 C32.4635463,0.712114363 30.5494047,0.378282427 29.2207779,0.2163721 C27.8317142,0.0466577411 26.4899257,0.766789031 25.8742362,2.00789703 C25.2744099,3.21673039 24.5198306,5.01037763 23.830441,7.44353054 C23.1410514,9.87668346 22.8451778,11.7963322 22.7228809,13.1360505 C22.5976002,14.5119508 23.3670457,15.814231 24.6440219,16.3790394 C25.8645302,16.9174629 27.6774946,17.6102043 30.1572782,18.2939362 C32.6400345,18.9766892 34.5551669,19.3105209 35.8837937,19.4724312 C37.2728574,19.6421456 38.615637,18.9210361 39.2313263,17.680906 C39.8311526,16.4720726 40.5857319,14.6784254 41.2751214,12.2452724 C41.9635202,9.81211984 42.2603847,7.89247082 42.3826815,6.55275253 C42.5079626,5.17587429 41.7385167,3.874572 40.4605497,3.30976394" id="Cube-2" fill="#FFBC16" transform="translate(32.552781, 9.844389) rotate(1.000000) translate(-32.552781, -9.844389) "></path>
                            <path d="M20.3506298,12.3227602 C20.1327683,11.0306749 19.7026036,9.18827681 18.8534264,6.87656868 L18.8543923,6.87656838 C18.0042496,4.56390835 17.1384542,2.87780957 16.4656439,1.74774296 C15.7764242,0.588162877 14.4177197,-0.0141628697 13.080952,0.251923057 C11.8011709,0.506564586 9.96404976,0.970867493 7.60140647,1.81431579 C5.24166001,2.6596676 3.52998605,3.4638714 2.38337246,4.07745566 C1.18363045,4.71867074 0.532252928,6.03864228 0.754932303,7.36595793 C0.972793851,8.6580432 1.4029588,10.4994891 2.25213536,12.8131017 C3.10131254,15.1248098 3.96710789,16.8109086 4.63991821,17.9409752 C5.33010341,19.1015072 6.68784245,19.702881 8.02557592,19.4367948 C9.30342545,19.1821538 11.1405462,18.7188031 13.5002921,17.8753558 C15.862936,17.030003 17.5746102,16.224847 18.7221896,15.6112625 C19.9219317,14.9700474 20.5733092,13.6500758 20.3506298,12.3227602" id="Cube-1" fill="#FF3744" transform="translate(10.552781, 9.844389) rotate(1.000000) translate(-10.552781, -9.844389) "></path>
                        </g>
                    </g>
                    <g id="smile-1" mask="url(#mask-2)" fill="#FFFFFF">
                        <g transform="translate(30.000000, 42.000000)">
                            <ellipse id="Oval" fill-rule="evenodd" transform="translate(3.348349, 2.173161) rotate(11.000000) translate(-3.348349, -2.173161) " cx="3.3483494" cy="2.17316143" rx="1.7685743" ry="1.6388312"></ellipse>
                            <ellipse id="Oval-Copy" fill-rule="evenodd" transform="translate(12.806477, 2.173161) rotate(11.000000) translate(-12.806477, -2.173161) " cx="12.8064775" cy="2.17316143" rx="1.7685743" ry="1.6388312"></ellipse>
                            <path d="M-0.167570385,12.7818436 C-0.672928404,12.5238176 -0.873430658,11.9049726 -0.615404703,11.3996146 C-0.357378748,10.8942566 0.261466236,10.6937543 0.766824255,10.9517803 C3.98405967,12.594438 6.81146391,13.1046748 9.26904798,12.5276253 C11.8047114,11.9322426 13.6739665,10.9760161 14.8987662,9.68034382 C15.2885558,9.26799912 15.9388142,9.24971464 16.3511589,9.63950429 C16.7635036,10.0292939 16.7817881,10.6795523 16.3919984,11.091897 C14.8633963,12.7089512 12.6383289,13.8471951 9.73874931,14.5280267 C6.76109032,15.2271916 3.45231342,14.6300857 -0.167570385,12.7818436 Z" id="Path-5" fill-rule="nonzero" transform="translate(7.972397, 12.085231) rotate(11.000000) translate(-7.972397, -12.085231) "></path>
                            <path d="M0.284652664,11.3993602 L2.22298239,12.0813447 C1.23074713,14.9014662 1.45511207,15.9855996 2.51108688,16.1290732 C3.68076164,16.2879951 4.26121481,15.4699528 4.30059815,12.9662809 L6.35514931,12.9985994 C6.29896731,16.5701936 4.90934878,18.5286059 2.23444548,18.1651711 C-0.55415777,17.7862879 -1.0757586,15.2659081 0.284652664,11.3993602 Z" id="Path-6" fill-rule="nonzero" transform="translate(2.959755, 14.803772) rotate(11.000000) translate(-2.959755, -14.803772) "></path>
                        </g>
                    </g>
                    <g id="smile-2" mask="url(#mask-2)" fill="#FFFFFF">
                        <g transform="translate(74.000000, 40.000000)">
                            <ellipse id="Oval-Copy-2" fill-rule="evenodd" transform="translate(2.093881, 2.455899) rotate(11.000000) translate(-2.093881, -2.455899) " cx="2.09388061" cy="2.45589943" rx="1.71935603" ry="1.84145139"></ellipse>
                            <path d="M0.610715747,14.6027724 C0.125338898,14.3088789 -0.0298889647,13.6771554 0.264004613,13.1917785 C0.557898191,12.7064017 1.18962169,12.5511738 1.67499854,12.8450674 C4.7988166,14.7365257 7.51093029,15.3496036 9.83732598,14.7520062 C12.262062,14.1291474 14.0390831,13.094469 15.2020422,11.6605295 C15.5594604,11.2198296 16.2064629,11.1523164 16.6471628,11.5097346 C17.0878627,11.8671527 17.1553759,12.5141552 16.7979578,12.9548551 C15.3355583,14.7580073 13.1745416,16.0162688 10.3485604,16.7421982 C7.42423896,17.493389 4.16962861,16.7576787 0.610715747,14.6027724 Z" id="Path-5-Copy" fill-rule="nonzero"></path>
                            <path d="M12.3481295,3.78469118 C11.9610914,4.19961961 11.310969,4.22222916 10.8960406,3.83519102 C10.4811122,3.44815288 10.4585026,2.79803052 10.8455408,2.38310209 L11.9749254,1.17233307 C12.3619636,0.757404645 13.0120859,0.7347951 13.4270143,1.12183324 C13.8419428,1.50887138 13.8645523,2.15899373 13.4775142,2.57392216 L12.3481295,3.78469118 Z" id="Path-7" fill-rule="nonzero" transform="translate(12.161527, 2.478512) rotate(11.000000) translate(-12.161527, -2.478512) "></path>
                        </g>
                    </g>
                </g>
            </g>
        </g>
    </g>
</svg>