<?xml version="1.0" encoding="UTF-8"?>
<svg width="80px" height="50px" viewBox="0 0 80 50" version="1.1" xmlns="http://www.w3.org/2000/svg" xmlns:xlink="http://www.w3.org/1999/xlink">
    <!-- Generator: Sketch 52.5 (67469) - http://www.bohemiancoding.com/sketch -->
    <title>ill_userpic_card</title>
    <desc>Created with Sketch.</desc>
    <defs>
        <path d="M6.50832397,1.51341276e-15 L73.491676,2.62944078e-16 C75.7547621,-1.52778082e-16 76.5754117,0.235634244 77.4027622,0.678106094 C78.2301126,1.12057794 78.8794221,1.7698874 79.3218939,2.59723783 C79.7643658,3.42458826 80,4.24523794 80,6.50832397 L80,43.491676 C80,45.7547621 79.7643658,46.5754117 79.3218939,47.4027622 C78.8794221,48.2301126 78.2301126,48.8794221 77.4027622,49.3218939 C76.5754117,49.7643658 75.7547621,50 73.491676,50 L6.50832397,50 C4.24523794,50 3.42458826,49.7643658 2.59723783,49.3218939 C1.7698874,48.8794221 1.12057794,48.2301126 0.678106094,47.4027622 C0.235634244,46.5754117 1.87820889e-15,45.7547621 1.60106079e-15,43.491676 L1.06347447e-15,6.50832397 C7.86326365e-16,4.24523794 0.235634244,3.42458826 0.678106094,2.59723783 C1.12057794,1.7698874 1.7698874,1.12057794 2.59723783,0.678106094 C3.42458826,0.235634244 4.24523794,1.92913492e-15 6.50832397,1.51341276e-15 Z" id="path-1"></path>
    </defs>
    <g id="Belarus" stroke="none" stroke-width="1" fill="none" fill-rule="evenodd">
        <g id="Corp_BelMir_000_UI_illustration" transform="translate(-119.000000, -1104.000000)">
            <g id="ill_userpic_card" transform="translate(119.000000, 1089.000000)">
                <g id="card-copy" transform="translate(0.000000, 15.000000)">
                    <mask id="mask-2" fill="white">
                        <use xlink:href="#path-1"></use>
                    </mask>
                    <use id="card" fill="#0073E6" xlink:href="#path-1"></use>
                    <g id="cube" mask="url(#mask-2)">
                        <g transform="translate(11.000000, 12.000000)" id="Group-9">
                            <g>
                                <path d="M56.2570863,2.24100497 C55.4549454,1.87581437 54.2621651,1.40672571 52.6312404,0.94350671 C51.0009669,0.481610437 49.7431283,0.255208489 48.870072,0.145268298 C47.9579527,0.0300303482 47.0765436,0.516585615 46.6717563,1.3557057 C46.2780326,2.17300479 45.7828209,3.3857452 45.3306576,5.03098708 C44.8791454,6.67622908 44.684727,7.97433418 44.6048178,8.88030693 C44.5236111,9.81074771 45.0289764,10.6917005 45.8682294,11.074092 C46.6710213,11.4386214 47.8624995,11.9077098 49.4921222,12.3709286 C51.1230468,12.8334863 52.3821875,13.0598885 53.2552438,13.1698287 C54.1680141,13.2850667 55.0494231,12.7978502 55.4542105,11.9593914 C55.8472832,11.1420922 56.3424949,9.92935178 56.7946581,8.2841099 C57.2468214,6.63886802 57.4412398,5.34076292 57.521149,4.43479017 C57.6030066,3.5036882 57.0963394,2.62339645 56.2570863,2.24100497" id="Cube-4" fill="#17C8F0" transform="translate(51.063038, 6.657540) rotate(1.000000) translate(-51.063038, -6.657540) "></path>
                                <path d="M43.0459641,8.33687285 C42.9023709,7.46299909 42.6197201,6.21689332 42.0609371,4.65326603 C41.5015194,3.08899466 40.9320258,1.94844376 40.4901668,1.18398646 C40.0362457,0.399564291 39.1432158,-0.00822650658 38.2648917,0.171272358 C37.4246452,0.343050897 36.216962,0.65643068 34.6653452,1.22604009 C33.1143633,1.79693753 31.9904966,2.34022493 31.2372424,2.75479078 C30.4484512,3.18802467 30.0208617,4.0804661 30.1682672,4.97816691 C30.3118603,5.85204067 30.594511,7.09750248 31.1539289,8.66241781 C31.7127119,10.2260451 32.2822055,11.366596 32.7240645,12.1310533 C33.1779857,12.9161194 34.0703808,13.3232661 34.9493396,13.1437674 C35.7889514,12.9719887 36.9960001,12.6592528 38.5469822,12.0896433 C40.0985988,11.518746 41.2237346,10.9748148 41.9769888,10.560249 C42.7657801,10.1270151 43.1927349,9.23457354 43.0459641,8.33687285" id="Cube-3" fill="#00CD52" transform="translate(36.607021, 6.657540) rotate(1.000000) translate(-36.607021, -6.657540) "></path>
                                <path d="M26.584149,2.24100496 C25.7819756,1.87581436 24.5891471,1.40672569 22.9588076,0.943506795 C21.3284682,0.481610509 20.0705787,0.255208552 19.1974872,0.145268354 C18.28468,0.0300302756 17.4032352,0.516585536 16.9990826,1.35570574 C16.605343,2.17300482 16.1101113,3.38574523 15.6579297,5.03098711 C15.2057481,6.67622899 15.0119729,7.9743342 14.9320605,8.88030695 C14.8501995,9.81074761 15.3562362,10.6917006 16.1955232,11.074092 C16.9976964,11.4386213 18.1892228,11.9077098 19.8189113,12.3709285 C21.4505529,12.8334864 22.7090935,13.0598884 23.582185,13.1698286 C24.4949922,13.2850667 25.3770879,12.7978503 25.7812406,11.9593914 C26.1749803,11.1420923 26.670212,9.92935189 27.1223935,8.28411001 C27.5739241,6.63886801 27.7683503,5.34076292 27.8482627,4.43479017 C27.9301236,3.5036882 27.424087,2.62339657 26.584149,2.24100496" id="Cube-2" fill="#FFBC16" transform="translate(21.390161, 6.657540) rotate(1.000000) translate(-21.390161, -6.657540) "></path>
                                <path d="M13.3731165,8.33687286 C13.2295276,7.4629991 12.9462507,6.21689321 12.3874845,4.65326592 L12.3881192,4.65326604 C11.8287182,3.08899468 11.2592418,1.94844378 10.8167614,1.18398636 C10.3634887,0.399564315 9.47048564,-0.00822647777 8.592188,0.171272392 C7.75133224,0.343050817 6.54431996,0.656430726 4.99211529,1.22604003 C3.44181476,1.79693759 2.31734728,2.34022488 1.56411576,2.75479074 C0.775982926,3.18802475 0.348406285,4.08046618 0.495172723,4.97816687 C0.638761583,5.85204063 0.9220384,7.09750256 1.48080479,8.66241776 C2.03957095,10.2260451 2.60904742,11.366596 3.05152774,12.1310534 C3.50543527,12.9161195 4.39780355,13.3232662 5.27673582,13.1437675 C6.11632232,12.9719888 7.32333472,12.6592528 8.87363549,12.0896432 C10.4258399,11.518746 11.5503073,10.9748147 12.3041734,10.560249 C13.0923063,10.127015 13.5198829,9.23457355 13.3731165,8.33687286" id="Cube-1" fill="#FF3744" transform="translate(6.934145, 6.657540) rotate(1.000000) translate(-6.934145, -6.657540) "></path>
                                <g id="smile-1" transform="translate(8.857690, 14.730492)">
                                    <ellipse id="Oval" fill="#FFFFFF" transform="translate(2.152930, 1.504038) rotate(11.000000) translate(-2.152930, -1.504038) " cx="2.15292956" cy="1.50403849" rx="1.13996459" ry="1.13092042"></ellipse>
                                    <ellipse id="Oval-Copy" fill="#FFFFFF" transform="translate(8.234339, 1.504038) rotate(11.000000) translate(-8.234339, -1.504038) " cx="8.23433895" cy="1.50403849" rx="1.13996459" ry="1.13092042"></ellipse>
                                    <path d="M0.170930032,8.14051414 C2.39117346,9.37686209 4.37448121,9.78729072 6.12085328,9.37180002 C7.86722536,8.95630932 9.17754069,8.25222614 10.0517993,7.25955048" id="Path-5" stroke="#FFFFFF" stroke-width="1.73868143" stroke-linecap="round" transform="translate(5.111365, 8.394057) rotate(11.000000) translate(-5.111365, -8.394057) "></path>
                                    <path d="M0.779822579,8.11386633 C0.0521204783,10.4109784 0.309188408,11.6585232 1.55102637,11.8565007 C2.79286433,12.0544783 3.41521563,11.1052344 3.41808028,9.00876905" id="Path-6" stroke="#FFFFFF" stroke-width="1.73868143" transform="translate(1.897299, 9.997996) rotate(11.000000) translate(-1.897299, -9.997996) "></path>
                                </g>
                                <g id="smile-2" transform="translate(38.657788, 14.585075)">
                                    <ellipse id="Oval-Copy-2" fill="#FFFFFF" transform="translate(1.392753, 1.529749) rotate(11.000000) translate(-1.392753, -1.529749) " cx="1.39275338" cy="1.52974855" rx="1.14066996" ry="1.14954442"></ellipse>
                                    <path d="M0.760176174,8.54845536 C2.98269928,9.80866991 4.96709492,10.2287414 6.71336308,9.80866991 C8.45963124,9.38859839 9.76933236,8.67447681 10.6424664,7.66630517" id="Path-5-Copy" stroke="#FFFFFF" stroke-width="1.73868143" stroke-linecap="round"></path>
                                    <path d="M7.70975937,1.92632215 L8.46882162,1.16134528" id="Path-7" stroke="#FFFFFF" stroke-width="1.73868143" stroke-linecap="round" transform="translate(8.089290, 1.543834) rotate(11.000000) translate(-8.089290, -1.543834) "></path>
                                </g>
                            </g>
                        </g>
                    </g>
                </g>
            </g>
        </g>
    </g>
</svg>