<?xml version="1.0" encoding="UTF-8"?>
<svg width="99px" height="98px" viewBox="0 0 99 98" version="1.1" xmlns="http://www.w3.org/2000/svg" xmlns:xlink="http://www.w3.org/1999/xlink">
    <!-- Generator: Sketch 52.5 (67469) - http://www.bohemiancoding.com/sketch -->
    <title>ill_monitor_mail</title>
    <desc>Created with Sketch.</desc>
    <g id="Belarus" stroke="none" stroke-width="1" fill="none" fill-rule="evenodd">
        <g id="Corp_BelMir_000_UI_illustration" transform="translate(-808.000000, -2099.000000)">
            <g id="ill_monitor_mail" transform="translate(794.000000, 2084.000000)">
                <g id="Group-2" transform="translate(14.451613, 14.451613)">
                    <g id="Group-4">
                        <g id="Group-18">
                            <g id="Group-3" transform="translate(0.034530, 0.434200)">
                                <path d="M39.2169898,79.2943815 L39.2169898,93.3177095 C54.6330256,92.1665296 62.2021163,91.4930228 61.9242621,91.2971892 C61.6464079,91.1013556 61.2652384,85.9532056 60.7807538,75.8527392 L39.2169898,79.2943815 Z" id="Path-88" fill="#CDE005"></path>
                                <path d="M0.512024168,2.1799257 C0.627341515,2.14213297 97.7922387,-0.128499286 97.583848,0.283065697 C97.4449209,0.557442352 97.2090852,26.4710216 96.876341,78.0238034 L0.512024168,79.9618391 C0.435145936,28.1324253 0.435145936,2.20512086 0.512024168,2.1799257 Z" id="Path-87" fill="#00CD52"></path>
                                <path d="M20.0531715,91.4142561 C19.9302223,91.5930605 19.9302223,93.6573022 20.0531715,97.6069814 L81.2608973,97.6069814 C81.1814334,92.9242045 81.1813755,90.6883377 81.2607238,90.899381 C81.3797461,91.2159459 20.2375952,91.1460496 20.0531715,91.4142561 Z" id="Path-89" fill="#00CD52"></path>
                                <polygon id="Path-90" fill="#FFFFFF" points="9.77906405 59.6411339 87.5851575 58.9974383 87.5851575 10.5333387 9.77906405 11.9593032"></polygon>
                            </g>
                        </g>
                    </g>
                    <g id="Group-6" transform="translate(29.935484, 23.741935)">
                        <path d="M0.0040449245,1.37797099 C0.00943815717,1.49282233 6.05972591,6.21001358 18.1549082,15.5295448 C30.9779026,5.14742418 37.3224207,-0.0290498737 37.1884625,0.000122612137 C37.0545042,0.0292950979 36.6568831,8.77932481 35.9955993,26.2502117 L0.0040449245,25.0882152 C-0.00134830817,9.1665344 -0.00134830817,1.26311964 0.0040449245,1.37797099 Z" id="Path-83-Copy" fill="#17C8F0"></path>
                        <path d="M0.0375074817,3.98351519 L17.9403433,17.078039 C30.5404057,7.48372319 36.7937364,2.70151927 36.7003354,2.7314272 C36.6855535,2.73616052 36.802366,1.82568479 37.050773,0 L0,0.0680282757 L0.0375074817,3.98351519 Z" id="Path-84-Copy" fill="#2C82E3"></path>
                    </g>
                </g>
            </g>
        </g>
    </g>
</svg>