<?xml version="1.0" encoding="UTF-8"?>
<svg width="100px" height="115px" viewBox="0 0 100 115" version="1.1" xmlns="http://www.w3.org/2000/svg" xmlns:xlink="http://www.w3.org/1999/xlink">
    <!-- Generator: Sketch 52.5 (67469) - http://www.bohemiancoding.com/sketch -->
    <title>ill_phone_sms</title>
    <desc>Created with Sketch.</desc>
    <g id="Belarus" stroke="none" stroke-width="1" fill="none" fill-rule="evenodd">
        <g id="Corp_BelMir_000_UI_illustration" transform="translate(-638.000000, -2090.000000)">
            <g id="ill_phone_sms" transform="translate(626.000000, 2084.000000)">
                <g id="Group-13" transform="translate(73.910319, 63.970473) rotate(9.000000) translate(-73.910319, -63.970473) translate(43.410319, 9.970473)">
                    <polygon id="Path-94-Copy" fill="#0073E6" points="0.647619434 0.273993131 60.5185872 0.273993131 60.5185872 106.414586 0.647619434 107.628832"></polygon>
                    <polygon id="Path-95" fill="#FFFFFF" points="8.33213638 12.469704 55.7245688 13.5062983 54.8681297 86.7922847 7.20843972 86.7922847"></polygon>
                    <polygon id="Path-95-Copy-4" fill="#B9EEFA" points="11.1931686 16.469704 52.7245688 17.3947205 51.9740457 82.7922847 10.2084397 82.7922847"></polygon>
                    <polygon id="Path-96" fill="#FFBC16" points="34.9726621 92.6054929 35.0540696 98.7990413 27.0581321 98.7750885 26.796005 92.8127628"></polygon>
                    <polygon id="Path-96-Copy" fill="#FF3744" transform="translate(31.472864, 6.779850) rotate(-180.000000) translate(-31.472864, -6.779850) " points="32.4847703 5.74759205 32.5051222 7.81210818 30.5061378 7.80412391 30.4406061 5.81668202"></polygon>
                </g>
                <g id="Group-5-Copy-4" transform="translate(43.902198, 57.877681) rotate(-15.000000) translate(-43.902198, -57.877681) translate(13.902198, 32.377681)">
                    <polygon id="Rectangle-Copy-2" fill="#CDE005" transform="translate(29.886829, 25.494339) rotate(4.000000) translate(-29.886829, -25.494339) " points="2.1270221 3.43889702 57.6466362 2.82570828 56.9262718 48.1629687 47.1266383 36.2389338 2.64548074 36.6561104"></polygon>
                    <text id="8954" transform="translate(31.231311, 20.412944) rotate(4.000000) translate(-31.231311, -20.412944) " font-family="CirceRoundedDM-Bold, Circe Rounded" font-size="11.9" font-weight="bold" line-spacing="12" fill="#0073E6">
                        <tspan x="16.2635694" y="25.4129442">8954</tspan>
                    </text>
                </g>
            </g>
        </g>
    </g>
</svg>