<?xml version="1.0" encoding="UTF-8"?>
<svg width="103px" height="125px" viewBox="0 0 103 125" version="1.1" xmlns="http://www.w3.org/2000/svg" xmlns:xlink="http://www.w3.org/1999/xlink">
    <!-- Generator: Sketch 52.5 (67469) - http://www.bohemiancoding.com/sketch -->
    <title>ill_FAQ</title>
    <desc>Created with Sketch.</desc>
    <g id="Belarus" stroke="none" stroke-width="1" fill="none" fill-rule="evenodd">
        <g id="Corp_BelMir_000_UI_illustration" transform="translate(-429.000000, -2294.000000)">
            <g id="ill_FAQ" transform="translate(416.000000, 2292.000000)">
                <g id="Group-14" transform="translate(13.000000, 0.000000)">
                    <g id="Group-9" transform="translate(33.000000, 62.000000)">
                        <polygon id="Path-17" fill="#009785" transform="translate(34.959571, 34.048848) rotate(9.000000) translate(-34.959571, -34.048848) " points="4.22424478 8.49493581 4.22424478 50.8241025 41.4424465 48.9004914 50.5155612 62.9391818 53.5865894 46.5574358 63.658897 46.5574358 65.6948964 5.15851342"></polygon>
                        <g id="Group-13" transform="translate(15.000000, 18.000000)" fill="#FFFFFF">
                            <path d="M0,0.895716209 L31,0 L31,3.89167788 L0,3.89167788 L0,0.895716209 Z M0,9.08132077 L28.4338249,9.08132077 L28.4338249,12.9277061 L0,11.6759838 L0,9.08132077 Z M0.41317206,16.86531 L20.5843805,17.6757995 L19.8440795,20 L0,20 L0.41317206,16.86531 Z" id="Combined-Shape"></path>
                        </g>
                    </g>
                    <polygon id="Path-19" fill="#009785" transform="translate(33.167969, 60.500000) rotate(-4.000000) translate(-33.167969, -60.500000) " points="3 32.1484375 63.3359375 30 60.6328125 74.0820312 26.71875 73.1542969 12.7531694 91 12.7531694 70.908118 3.28494473 70.908118"></polygon>
                    <polygon id="Path-19-Copy" fill="#01CF39" points="0 22.1484375 60.3359375 20 57.6328125 64.0820312 23.71875 63.1542969 9.75316939 81 9.75316939 60.908118 0.28494473 60.908118"></polygon>
                    <path d="M11.0219476,25.4198117 C9.54029779,18.0300658 10.1554781,12.7039841 13.0712526,9.49230597 C17.9954297,4.06840498 30.9922137,1.21794362 37.9468563,5.50106217 C44.4172391,9.48594223 47.1811904,14.4216158 46.8402621,19.9302125 C46.6056681,23.7206973 45.153003,26.9518805 42.6045992,30.8780966 C40.9323238,33.4544991 40.5566043,35.5789219 41.3269657,37.3691225 L42.0025765,38.9391376 L27.5956607,43.0222736 L27.0349938,41.9273926 C26.2979579,40.488095 25.9067304,39.0057474 25.8717335,37.4940385 C25.8126717,34.9428373 27.8657881,29.3884876 30.5392468,25.2629766 C32.7090567,21.9146642 30.1971148,17.4850811 26.6343343,18.333037 C23.964287,18.9685188 22.7719544,20.7457913 22.886851,24.1256752 L22.9342589,25.5202617 L11.2909657,26.7615428 L11.0219476,25.4198117 Z M26.7365868,43.8027376 L42.2727655,39.8998215 L44.5213946,49.3210395 L29.4478307,51.8022955 L26.7365868,43.8027376 Z" id="Combined-Shape" stroke="#FFFFFF" stroke-width="3" fill="#CDE005" transform="translate(28.556697, 27.498948) rotate(24.000000) translate(-28.556697, -27.498948) "></path>
                </g>
            </g>
        </g>
    </g>
</svg>