<?xml version="1.0" encoding="UTF-8"?>
<svg width="94px" height="111px" viewBox="0 0 94 111" version="1.1" xmlns="http://www.w3.org/2000/svg" xmlns:xlink="http://www.w3.org/1999/xlink">
    <!-- Generator: Sketch 52.5 (67469) - http://www.bohemiancoding.com/sketch -->
    <title>ill_number_1</title>
    <desc>Created with Sketch.</desc>
    <g id="Belarus" stroke="none" stroke-width="1" fill="none" fill-rule="evenodd">
        <g id="Corp_BelMir_000_UI_illustration" transform="translate(-770.000000, -2301.000000)">
            <g id="ill_number_1" transform="translate(752.000000, 2294.000000)">
                <g id="Group-12">
                    <g id="Group-4" transform="translate(20.266055, 7.871560)">
                        <ellipse id="Oval-2-Copy-11" stroke="#F04550" stroke-width="3" cx="5.67073615" cy="71.668289" rx="5.67073615" ry="5.66828901"></ellipse>
                        <polygon id="Path-8" fill="#F04550" points="27 77.5416453 31.0086197 109.297155 81.1971719 98.8801276 75.8343988 70"></polygon>
                        <polygon id="Path-9" fill="#F04550" points="6 39.3125273 21.9886304 52.8444384 45.6636805 30.8894504 25.9194102 19"></polygon>
                        <polygon id="Path" fill="#FBBC23" points="7 30.0372016 36.0204213 0 47.9494781 6.22352466 55.8067782 67.6696838 68.0269541 65.1230465 71.8918998 93.4934727 24.6700739 100.661256 20.8051282 72.2908301 35.1960448 70.5663334 30.4882691 34.7935382 21.071982 44.3905032"></polygon>
                        <path d="M29.202784,53.8643245 C26.8572384,65.6909076 34.6524916,81.1323574 47.4558945,86.0671795" id="Path-17-Copy-7" stroke="#01CF39" stroke-width="5" stroke-linecap="round" stroke-linejoin="round" transform="translate(38.121740, 69.965752) scale(1, -1) rotate(-91.807269) translate(-38.121740, -69.965752) "></path>
                    </g>
                </g>
                <path d="M98.5693177,45.2392886 L95.7396287,46.7269442 C94.7619395,47.2409458 93.5526852,46.8650528 93.0386836,45.8873636 C92.8340054,45.4980427 92.7633761,45.0521065 92.8377298,44.6185912 L93.3781523,41.4676861 C93.4894282,40.818898 93.2743312,40.1568976 92.802959,39.6974233 L90.5136924,37.4659399 C89.7227253,36.6949375 89.7065407,35.4287109 90.4775431,34.6377438 C90.7845603,34.3227765 91.1868451,34.1178022 91.6221192,34.0545531 L94.7858078,33.5948423 C95.4372281,33.5001854 96.0003593,33.0910466 96.2916833,32.5007597 L97.7065278,29.6339715 C98.1953724,28.6434642 99.3946241,28.2367862 100.385131,28.7256308 C100.779557,28.9202912 101.098812,29.2395463 101.293472,29.6339715 L102.708317,32.5007597 C102.999641,33.0910466 103.562772,33.5001854 104.214192,33.5948423 L107.377881,34.0545531 C108.470971,34.2133884 109.228333,35.2282741 109.069498,36.3213638 C109.006249,36.7566379 108.801275,37.1589227 108.486308,37.4659399 L106.197041,39.6974233 C105.725669,40.1568976 105.510572,40.818898 105.621848,41.4676861 L106.16227,44.6185912 C106.348992,45.7072641 105.617817,46.741176 104.529144,46.927898 C104.095628,47.0022517 103.649692,46.9316223 103.260371,46.7269442 L100.430682,45.2392886 C99.8480342,44.9329724 99.1519658,44.9329724 98.5693177,45.2392886 Z" id="Star" stroke="#F04550" stroke-width="5" stroke-linecap="round" stroke-linejoin="round"></path>
                <path d="M97.0425694,112.812144 C96.5181889,114.256011 95.9850411,115.310445 95.5726426,116.017326 C95.1484327,116.742975 94.3199481,117.123874 93.5069958,116.963821 C92.7288371,116.811355 91.6121419,116.530316 90.1767444,116.015162 C88.7434167,115.499755 87.7043084,115.00533 87.0084947,114.629178 C86.2801391,114.235232 85.8878771,113.415889 86.0281925,112.58796 C86.1647157,111.781204 86.4328519,110.632329 86.9572324,109.188462 C87.482535,107.743425 88.0149225,106.689718 88.4277576,105.982996 C88.8519675,105.257346 89.6800155,104.87629 90.4935662,105.036058 C91.27069,105.18865 92.3869487,105.469532 93.8211986,105.983769 C95.2561105,106.50025 96.2953806,106.994233 96.992342,107.371302 C97.7198246,107.764931 98.1121993,108.585318 97.9717711,109.412203 C97.8354098,110.218517 97.5675483,111.367992 97.0425694,112.812144 Z" id="Cube" fill="#FABC22"></path>
            </g>
        </g>
    </g>
</svg>