<?xml version="1.0" encoding="UTF-8"?>
<svg width="105px" height="110px" viewBox="0 0 105 110" version="1.1" xmlns="http://www.w3.org/2000/svg" xmlns:xlink="http://www.w3.org/1999/xlink">
    <!-- Generator: Sketch 52.5 (67469) - http://www.bohemiancoding.com/sketch -->
    <title>ill_rules</title>
    <desc>Created with Sketch.</desc>
    <g id="Belarus" stroke="none" stroke-width="1" fill="none" fill-rule="evenodd">
        <g id="Corp_BelMir_000_UI_illustration" transform="translate(-599.000000, -2303.000000)">
            <g id="ill_rules" transform="translate(584.000000, 2294.000000)">
                <g id="Group-15" transform="translate(15.000000, 9.000000)">
                    <path d="M98.1699219,10.3066406 C102.609375,11.5533854 104.75651,14.7496745 104.611328,19.8955078 C104.466146,25.0413411 101.233724,28.2486979 94.9140625,29.5175781 L40.9941406,18.7646484 C45.6104541,16.3966802 47.330509,13.9317208 46.1543051,11.3697704 C44.9781013,8.8078199 41.9266663,6.01789644 37,3 L98.1699219,10.3066406 Z" id="Path-28" fill="#0073E6"></path>
                    <path d="M37.9929375,0 C30.9670664,0.774609047 26.8093218,3.45151186 25.5197038,8.03070844 C24.2300857,12.609905 20.7235178,40.8487251 15,92.7471686 L57.7826087,108.076889 C65.5370738,110.305608 70.3178433,108.498634 72.1249172,102.655968 C73.9319911,96.8133011 76.3875606,72.0127037 79.4916256,28.2541757 C81.0372904,22.0470531 82.9207762,18.1088251 85.1420829,16.4394918 C87.3633897,14.7701585 91.3160287,12.6678162 97,10.132465 L37.9929375,0 Z" id="Path-26" fill="#4BCAFF"></path>
                    <path d="M31.2976176,18 L50.1207903,20.8507026 L48.2923682,25.509767 L30.9112091,22.4166692 L31.2976176,18 Z M30.47089,29.5136214 L64.9662666,35.7641407 L64.722528,37.749233 L30.19174,31.7871156 L30.47089,29.5136214 Z M27.3911411,54.8165637 L57.8553984,61.0758787 L57.5507251,63.5572441 L27.0422036,57.6584314 L27.3911411,54.8165637 Z M29.3911411,37.8165637 L58.8384291,44.15292 L58.5581789,46.4353747 L29.0620446,40.4968397 L29.3911411,37.8165637 Z M26.3911411,63.8165637 L56.8309753,70.2747893 L56.5507251,72.5572441 L26.0620446,66.4968397 L26.3911411,63.8165637 Z M29.1118725,45.5216418 L61.841007,53.011829 L61.5363336,55.4931944 L28.4048413,48.8263293 L29.1118725,45.5216418 Z M26.2688279,72.3205955 L44.7767579,77.1118582 L44.4720846,79.5932236 L25,74.0704451 L26.2688279,72.3205955 Z" id="Combined-Shape" fill="#FFFFFF"></path>
                    <path d="M64,110 C58.5129998,107.7773 55.7173343,105.289214 55.6130036,102.53574 C55.5086728,99.7822662 56.7851326,96.7765378 59.4423828,93.5185547 L6.95703125,83.3027344 C2.24326998,86.3064013 -0.0357013773,89.9564664 0.120117188,94.2529297 C0.275935752,98.5493929 6.63963214,101.76122 19.2112063,103.888411 L64,110 Z" id="Path-27" fill="#0073E6"></path>
                </g>
            </g>
        </g>
    </g>
</svg>