<?xml version="1.0" encoding="UTF-8"?>
<svg width="91px" height="107px" viewBox="0 0 91 107" version="1.1" xmlns="http://www.w3.org/2000/svg" xmlns:xlink="http://www.w3.org/1999/xlink">
    <!-- Generator: Sketch 52.5 (67469) - http://www.bohemiancoding.com/sketch -->
    <title>ill_number_4</title>
    <desc>Created with Sketch.</desc>
    <g id="Belarus" stroke="none" stroke-width="1" fill="none" fill-rule="evenodd">
        <g id="Corp_BelMir_000_UI_illustration" transform="translate(-1277.000000, -2309.000000)">
            <g id="ill_number_4" transform="translate(1256.000000, 2294.000000)">
                <g id="Group-5">
                    <polygon id="Path-16" fill="#CDE005" transform="translate(52.106215, 55.862162) rotate(10.000000) translate(-52.106215, -55.862162) " points="59.4134912 24.0123864 61.6929513 87.7119376 43.7909998 85.2642662 42.519479 26.6667167"></polygon>
                    <polygon id="Path-15" fill="#FFBB35" points="78.2459836 95 94.4927522 97.8647437 89.6957906 121.847761 74 119.080169"></polygon>
                    <polygon id="Path-14" fill="#F72B17" points="32.098886 15 58.4595561 19.1909538 50.8482901 62.1310657 65.6032404 63.754805 68.3779445 37.759273 93.0675342 40.7738442 89.0821384 67.2399636 99.1683058 69.6376444 95.2882198 89.7846474 84.6164796 88.6668703 80.3638537 115.48761 60.0855922 111.538735 63.2718247 85.9020459 24.9826045 79.7105287 23 76.5248386"></polygon>
                    <path d="M30.1446353,106.814606 L27.3149462,108.302262 C26.337257,108.816263 25.1280027,108.44037 24.6140011,107.462681 C24.409323,107.07336 24.3386936,106.627424 24.4130473,106.193909 L24.9534698,103.043004 C25.0647457,102.394216 24.8496487,101.732215 24.3782766,101.272741 L22.08901,99.0412574 C21.2980428,98.270255 21.2818582,97.0040285 22.0528607,96.2130613 C22.3598779,95.8980941 22.7621627,95.6931197 23.1974367,95.6298707 L26.3611253,95.1701598 C27.0125456,95.0755029 27.5756768,94.6663642 27.8670008,94.0760772 L29.2818454,91.209289 C29.77069,90.2187817 30.9699417,89.8121037 31.960449,90.3009483 C32.3548742,90.4956088 32.6741292,90.8148638 32.8687897,91.209289 L34.2836342,94.0760772 C34.5749583,94.6663642 35.1380894,95.0755029 35.7895098,95.1701598 L38.9531984,95.6298707 C40.0462881,95.7887059 40.803651,96.8035916 40.6448157,97.8966814 C40.5815667,98.3319554 40.3765924,98.7342402 40.0616251,99.0412574 L37.7723585,101.272741 C37.3009864,101.732215 37.0858894,102.394216 37.1971653,103.043004 L37.7375878,106.193909 C37.9243098,107.282582 37.1931342,108.316494 36.1044613,108.503216 C35.670946,108.577569 35.2250099,108.50694 34.8356889,108.302262 L32.0059998,106.814606 C31.4233518,106.50829 30.7272833,106.50829 30.1446353,106.814606 Z" id="Star" fill="#FBBC23" transform="translate(31.075318, 100.075318) rotate(30.000000) translate(-31.075318, -100.075318) "></path>
                </g>
                <path d="M62.7543449,47.0499139 C71.9159935,38.1446121 81.1074897,38.1330674 90.0627368,47.244368 C99.017984,56.3556686 108.176635,56.4422743 117.308739,47.4978593" id="Path-18-Copy-19" stroke="#CDE005" stroke-width="5" stroke-linecap="round" stroke-linejoin="round" transform="translate(90.031542, 47.266674) rotate(-494.533053) translate(-90.031542, -47.266674) "></path>
                <path d="M57.0425694,111.812144 C56.5181889,113.256011 55.9850411,114.310445 55.5726426,115.017326 C55.1484327,115.742975 54.3199481,116.123874 53.5069958,115.963821 C52.7288371,115.811355 51.6121419,115.530316 50.1767444,115.015162 C48.7434167,114.499755 47.7043084,114.00533 47.0084947,113.629178 C46.2801391,113.235232 45.8878771,112.415889 46.0281925,111.58796 C46.1647157,110.781204 46.4328519,109.632329 46.9572324,108.188462 C47.482535,106.743425 48.0149225,105.689718 48.4277576,104.982996 C48.8519675,104.257346 49.6800155,103.87629 50.4935662,104.036058 C51.27069,104.18865 52.3869487,104.469532 53.8211986,104.983769 C55.2561105,105.50025 56.2953806,105.994233 56.992342,106.371302 C57.7198246,106.764931 58.1121993,107.585318 57.9717711,108.412203 C57.8354098,109.218517 57.5675483,110.367992 57.0425694,111.812144 Z" id="Cube" fill="#00C2FC"></path>
            </g>
        </g>
    </g>
</svg>