<?xml version="1.0" encoding="UTF-8"?>
<svg width="107px" height="101px" viewBox="0 0 107 101" version="1.1" xmlns="http://www.w3.org/2000/svg" xmlns:xlink="http://www.w3.org/1999/xlink">
    <!-- Generator: Sketch 52.5 (67469) - http://www.bohemiancoding.com/sketch -->
    <title>ill_shop</title>
    <desc>Created with Sketch.</desc>
    <g id="Belarus" stroke="none" stroke-width="1" fill="none" fill-rule="evenodd">
        <g id="Corp_BelMir_000_UI_illustration" transform="translate(-258.000000, -2310.000000)">
            <g id="ill_shop" transform="translate(248.000000, 2294.000000)">
                <polygon id="Path-107-Copy" fill="#0073E6" points="21.8371686 25.0882141 21.8371686 17.5912512 107.846611 16 107.846611 26.0140329"></polygon>
                <polygon id="Path-36-Copy" fill="#0073E6" points="19.4289089 113.440106 19.4289089 50.9197653 108.710409 50.9197653 108.534517 114.360592"></polygon>
                <polygon id="Path-68-Copy" fill="#00C2FD" points="79.6354008 116.434306 79.6354008 72.5941024 103.115933 72.5941024 103.115933 116.434306"></polygon>
                <polygon id="Path-69-Copy" fill="#00C2FD" points="27.2557528 71.9920375 69.7362153 73.0238968 69.7362153 101.88656 28.9761063 101.88656"></polygon>
                <path d="M11,50.9197653 C12.3159663,60.0866371 16.5821607,64.7251468 23.7985832,64.8352946 C31.0150057,64.9454423 35.1146131,60.3069326 36.0974054,50.9197653 L11,50.9197653 Z" id="Path-82-Copy" fill="#F72B17"></path>
                <path d="M35.0825968,50.9197653 C35.7004228,60.3719886 40.3658379,65.2648865 49.0788423,65.5984589 C57.7918467,65.9320313 62.8249291,61.0391335 64.1780896,50.9197653 L35.0825968,50.9197653 Z" id="Path-83-Copy-2" fill="#FBBC23"></path>
                <path d="M63.379648,50.9197653 C63.6194295,60.638315 67.9524547,65.7170063 76.3787235,66.1558393 C84.8049923,66.5946723 89.412053,61.515981 90.1999057,50.9197653 L63.379648,50.9197653 Z" id="Path-84-Copy-3" fill="#06C92F"></path>
                <path d="M91.0746343,50.9197653 L91.1049395,50.9197653 C90.9797942,59.8812095 95.4604178,64.3966408 104.54681,64.4660594 C113.633203,64.535478 117.650442,60.0200467 116.598528,50.9197653 L91.0746343,50.9197653 Z" id="Path-85-Copy" fill="#00C2FD"></path>
                <polygon id="Path-97-Copy" fill="#4149B4" points="25.2557528 98.482894 73.6211819 98.482894 73.6211819 103.862673 25.2557528 103.862673"></polygon>
                <polygon id="Path-108" fill="#F72B17" points="10.7972865 51.9080992 35.0348746 51.302099 41.1154892 24.4589844 20.4686505 24.4589844"></polygon>
                <polygon id="Path-109" fill="#FBBC23" points="34.9432894 52.1859262 63.1336889 52.8050806 63.1336889 24.4589844 40.5246541 24.4589844"></polygon>
                <polygon id="Path-110" fill="#06C92F" points="62.6638586 51.7850244 89.6126444 52.3442997 84.3903046 24.4589844 62.6638586 24.4589844"></polygon>
                <polygon id="Path-111" fill="#00C2FD" points="82.9088721 24.9797676 88.6002805 51.3920898 116 51 107.076496 25.4980732"></polygon>
            </g>
        </g>
    </g>
</svg>