<?xml version="1.0" encoding="UTF-8"?>
<svg width="101px" height="110px" viewBox="0 0 101 110" version="1.1" xmlns="http://www.w3.org/2000/svg" xmlns:xlink="http://www.w3.org/1999/xlink">
    <!-- Generator: Sketch 52.5 (67469) - http://www.bohemiancoding.com/sketch -->
    <title>ill_number_2</title>
    <desc>Created with Sketch.</desc>
    <g id="Belarus" stroke="none" stroke-width="1" fill="none" fill-rule="evenodd">
        <g id="Corp_BelMir_000_UI_illustration" transform="translate(-933.000000, -2303.000000)">
            <g id="ill_number_2" transform="translate(920.000000, 2294.000000)">
                <g id="Group-11">
                    <path d="M59.6531113,55.9011956 L40,49.4178318 C40.6450871,33.7660378 45.462357,22.812704 54.4518098,16.5578306 C63.4412627,10.3029571 73.6494589,8.52251788 85.0763986,11.2165128 L83.3511758,32.933651 C76.0732615,31.0554032 70.6841788,32.7177418 67.1839276,37.9206666 C63.6836764,43.1235915 61.1734043,49.1171011 59.6531113,55.9011956 Z" id="Path-10" fill="#CDE005"></path>
                    <polygon id="Path-11" fill="#01CF39" points="36.1980554 70 29 102.415602 84.6058186 118.623402 95.4220958 86.2078008"></polygon>
                    <path d="M34.8169647,38.1285742 L51.8831264,43.2683902 C56.6363757,32.6689528 61.9155992,28.3757281 67.7207971,30.3887162 C76.428594,33.4081983 76.2733585,44.6210695 66.2000983,51.9378348 C59.4845915,56.8156783 50.3382798,63.0011523 38.7611632,70.494257 L34,95.7044976 L96.9488971,105.325444 L99.8385891,80.0658935 L64.0414121,74.4926357 C81.6680448,61.8185218 91.8364755,51.8534191 94.5467042,44.5973276 C98.6120473,33.7131903 96.3614373,10.1289652 69.2640204,9.03805548 C51.1990757,8.31078237 39.7167238,18.0076219 34.8169647,38.1285742 Z" id="Path-3" fill="#FF8717"></path>
                </g>
                <path d="M58.9556034,74.5056121 C63.4096594,70.5469775 67.8782261,70.5418455 72.2319373,74.5920519 C76.5856485,78.6422583 81.0382473,78.6807567 85.4779396,74.7047353 C89.917632,70.7287139 94.3014149,70.7627537 98.6936104,74.8436622 C103.085806,78.9245708 107.482524,79.0011068 111.939613,74.9563456" id="Path-18-Copy-17" stroke="#CDE005" stroke-width="5" stroke-linecap="round" stroke-linejoin="round" transform="translate(85.447608, 74.746491) rotate(-554.533053) translate(-85.447608, -74.746491) "></path>
                <circle id="Oval-Copy-61" stroke="#F42E3B" stroke-width="3" stroke-linecap="round" stroke-linejoin="round" transform="translate(21.653061, 54.653061) rotate(-217.654641) translate(-21.653061, -54.653061) " cx="21.6530615" cy="54.6530615" r="6.88222394"></circle>
                <path d="M101.026457,40.1670196 C101.557063,41.6060836 101.829661,42.752892 101.970348,43.5567976 C102.114112,44.3825984 101.726156,45.2027939 101.001005,45.5993356 C100.307365,45.979469 99.2717914,46.4773728 97.8413517,46.999664 C96.4123322,47.5204408 95.2984108,47.8056114 94.5234148,47.9620957 C93.7120439,48.1257448 92.8832576,47.7494859 92.4563276,47.0266855 C92.0401586,46.3224985 91.5038976,45.2726315 90.9732911,43.8335675 C90.4426356,42.3930206 90.1699256,41.2472534 90.0296742,40.44319 C89.8859102,39.6173891 90.2734298,38.7973515 90.9988554,38.4002103 C91.6917856,38.0208341 92.726923,37.5230881 94.1558935,37.0008286 C95.5868182,36.4798624 96.7005779,36.1942501 97.4770432,36.037734 C98.2875424,35.8744006 99.1170878,36.251385 99.5432586,36.9734599 C99.959266,37.6772051 100.496125,38.7273561 101.026457,40.1670196 Z" id="Cube" fill="#F72A16"></path>
            </g>
        </g>
    </g>
</svg>