<?xml version="1.0" encoding="UTF-8"?>
<svg width="60px" height="45px" viewBox="0 0 60 45" version="1.1" xmlns="http://www.w3.org/2000/svg" xmlns:xlink="http://www.w3.org/1999/xlink">
    <!-- Generator: Sketch 52.5 (67469) - http://www.bohemiancoding.com/sketch -->
    <title>ill_BonusCard_small</title>
    <desc>Created with Sketch.</desc>
    <defs>
        <polygon id="path-1" points="5.56947296 5.35915386 55.6371794 5.4004966 57.047659 6.14158104 57.79578 7.4113977 57.8006626 37.9327605 57.2176091 39.1948021 55.3766573 39.9138346 5.63405366 39.9325558 3.94353222 39.0551849 3.39618633 37.2792005 3.43111276 7.48425508 4.07254019 6.04508392"></polygon>
    </defs>
    <g id="Belarus" stroke="none" stroke-width="1" fill="none" fill-rule="evenodd">
        <g id="Corp_BelMir_000_UI_illustration" transform="translate(-420.000000, -2125.000000)">
            <g id="ill_BonusCard_small" transform="translate(418.000000, 2116.000000)">
                <g id="Group-4" transform="translate(1.032258, 9.290323)">
                    <mask id="mask-2" fill="white">
                        <use xlink:href="#path-1"></use>
                    </mask>
                    <use id="card" fill="#0073E6" transform="translate(30.598424, 22.645855) rotate(12.000000) translate(-30.598424, -22.645855) " xlink:href="#path-1"></use>
                    <g id="cube" mask="url(#mask-2)">
                        <g transform="translate(31.752702, 18.501469) rotate(12.000000) translate(-31.752702, -18.501469) translate(11.623669, 13.856308)">
                            <path d="M38.625504,1.51811646 C38.0748303,1.27071692 37.2559696,0.952956232 36.136289,0.639241137 C35.0170554,0.326422477 34.15349,0.173162411 33.5540886,0.0987799507 C32.9278683,0.0208127137 32.3226405,0.350730242 32.0445951,0.919539601 C31.774149,1.47355721 31.4339632,2.2956166 31.123267,3.41081459 C30.8130178,4.52601256 30.6793359,5.40588515 30.6243334,6.01995675 C30.5684362,6.65061274 30.915272,7.24763632 31.4914233,7.50668874 C32.0425439,7.75364003 32.8605107,8.07140076 33.9792973,8.38511589 C35.0989778,8.69838276 35.9634372,8.85164279 36.5628387,8.92602525 C37.1895059,9.00399247 37.7947338,8.67362671 38.0727791,8.10526558 C38.3427783,7.55124799 38.682964,6.7291886 38.9936602,5.61399061 C39.3043565,4.49879262 39.4380383,3.61892003 39.4930409,3.00484843 C39.549385,2.37374419 39.2016552,1.77716888 38.625504,1.51811646" id="Cube-4" fill="#17C8F0" transform="translate(35.058725, 4.512397) rotate(1.000000) translate(-35.058725, -4.512397) "></path>
                            <path d="M29.5541085,5.64964433 C29.4556551,5.05736338 29.2617854,4.2128086 28.878379,3.15308323 C28.4945369,2.09292141 28.1037119,1.31995466 27.80046,0.801880855 C27.4889296,0.270276911 26.8758604,-0.00598267438 26.2727978,0.115814596 C25.6958796,0.232373265 24.8666668,0.444964212 23.8012786,0.831277813 C22.7363262,1.21846433 21.9646245,1.58687153 21.4473957,1.86797569 C20.9057652,2.16173831 20.6120561,2.76669185 20.7131233,3.37512195 C20.8115767,3.96740289 21.0054465,4.81152121 21.3892886,5.8721195 C21.772695,6.93184487 22.1635199,7.70481161 22.4667719,8.22288542 C22.7783022,8.75492583 23.3909357,9.03074896 23.994434,8.90895168 C24.5709166,8.79239302 25.3996936,8.58023856 26.464646,8.19392498 C27.5300341,7.80673844 28.3026073,7.43789475 28.8198362,7.15679059 C29.3614667,6.86302797 29.65474,6.25807444 29.5541085,5.64964433" id="Cube-3" fill="#00CD52" transform="translate(25.133551, 4.512397) rotate(1.000000) translate(-25.133551, -4.512397) "></path>
                            <path d="M18.2527377,1.51811646 C17.7020418,1.27071693 16.883148,0.952956236 15.7638692,0.639241126 C14.6445903,0.326422467 13.78099,0.173162402 13.1815643,0.0987799428 C12.5548717,0.020812724 11.9496195,0.350730253 11.6720098,0.919539596 C11.4015528,1.47355721 11.0613533,2.29561659 10.7506445,3.41081458 C10.4399357,4.52601257 10.3066955,5.40588514 10.2516907,6.01995675 C10.1953443,6.65061276 10.5426412,7.24763631 11.1188157,7.50668874 C11.6695116,7.75364004 12.4875114,8.07140077 13.6063432,8.3851159 C14.726516,8.69838275 15.5905634,8.85164279 16.189989,8.92602525 C16.8166816,9.00399247 17.4223809,8.6736267 17.6999905,8.10526558 C17.9704476,7.55124797 18.3106471,6.72918859 18.6213559,5.6139906 C18.9316176,4.49879262 19.0653049,3.61892003 19.1203097,3.00484843 C19.1766561,2.37374419 18.8293592,1.77716887 18.2527377,1.51811646" id="Cube-2" fill="#FFBC16" transform="translate(14.686000, 4.512397) rotate(1.000000) translate(-14.686000, -4.512397) "></path>
                            <path d="M9.18140386,5.64964433 C9.08295342,5.05736338 8.88865379,4.21280861 8.50525894,3.15308324 L8.50569466,3.15308323 C8.12186411,2.09292141 7.73105093,1.31995466 7.42737241,0.801880869 C7.11628713,0.270276908 6.50323642,-0.0059826783 5.90019199,0.115814591 C5.32285538,0.232373277 4.49410327,0.444964206 3.42831151,0.831277823 C2.36382689,1.21846432 1.59171268,1.58687153 1.07449942,1.86797569 C0.533320939,2.16173829 0.239620768,2.76669184 0.340249194,3.37512195 C0.43869963,3.9674029 0.632999282,4.8115212 1.0163941,5.8721195 C1.39978895,6.93184487 1.79060212,7.70481162 2.09428064,8.22288541 C2.40580163,8.75492582 3.01841664,9.03074896 3.62189679,8.90895167 C4.19836195,8.79239302 5.02711404,8.58023856 6.09159864,8.19392499 C7.15739043,7.80673844 7.92950465,7.43789476 8.44715364,7.15679059 C8.98833212,6.86302798 9.28203229,6.25807444 9.18140386,5.64964433" id="Cube-1" fill="#FF3744" transform="translate(4.760827, 4.512397) rotate(1.000000) translate(-4.760827, -4.512397) "></path>
                        </g>
                    </g>
                    <g id="smile-1" mask="url(#mask-2)">
                        <g transform="translate(19.572508, 25.596731) rotate(12.000000) translate(-19.572508, -25.596731) translate(15.959605, 21.467699)">
                            <ellipse id="Oval" stroke="none" fill="#FFFFFF" fill-rule="evenodd" transform="translate(1.478153, 1.019418) rotate(11.000000) translate(-1.478153, -1.019418) " cx="1.47815264" cy="1.01941835" rx="1" ry="1"></ellipse>
                            <ellipse id="Oval-Copy" stroke="none" fill="#FFFFFF" fill-rule="evenodd" transform="translate(5.653510, 1.019418) rotate(11.000000) translate(-5.653510, -1.019418) " cx="5.6535105" cy="1.01941835" rx="1" ry="1"></ellipse>
                            <path d="M0.120053488,5.52587797 C1.64167627,6.36059934 3.00205999,6.63564876 4.20120466,6.35102623 C5.40034932,6.06640371 6.30072198,5.58680239 6.90232265,4.91222228" id="Path-5" stroke="#FFFFFF" stroke-width="1.00725751" fill="none" stroke-linecap="round" transform="translate(3.511188, 5.685904) rotate(11.000000) translate(-3.511188, -5.685904) "></path>
                            <path d="M0.538674823,5.50081399 C0.0355020109,7.05970085 0.209862821,7.90524702 1.06175725,8.03745251 C1.91365169,8.169658 2.34230764,7.52494403 2.34772511,6.10331059" id="Path-6" stroke="#FFFFFF" stroke-width="1.00725751" fill="none" transform="translate(1.303069, 6.777570) rotate(11.000000) translate(-1.303069, -6.777570) "></path>
                        </g>
                    </g>
                    <g id="smile-2" mask="url(#mask-2)">
                        <g transform="translate(40.219376, 29.348719) rotate(12.000000) translate(-40.219376, -29.348719) translate(36.090344, 25.735816)">
                            <ellipse id="Oval-Copy-2" stroke="none" fill="#FFFFFF" fill-rule="evenodd" transform="translate(0.956233, 1.036844) rotate(11.000000) translate(-0.956233, -1.036844) " cx="0.956232907" cy="1.03684431" rx="1" ry="1"></ellipse>
                            <path d="M0.521919732,5.79403541 C2.04785373,6.64819296 3.4102948,6.93291215 4.60924294,6.64819296 C5.80819108,6.36347378 6.70740218,5.87945116 7.30687625,5.19612512" id="Path-5-Copy" stroke="#FFFFFF" stroke-width="1.00725751" fill="none" stroke-linecap="round"></path>
                            <path d="M5.55381787,1.04650075 L5.55402917,1.04628136" id="Path-7" stroke="#FFFFFF" stroke-width="1.00725751" fill="none" stroke-linecap="round" transform="translate(5.553924, 1.046391) rotate(11.000000) translate(-5.553924, -1.046391) "></path>
                        </g>
                    </g>
                </g>
            </g>
        </g>
    </g>
</svg>