<?xml version="1.0" encoding="UTF-8"?>
<svg width="256px" height="182px" viewBox="0 0 256 182" version="1.1" xmlns="http://www.w3.org/2000/svg" xmlns:xlink="http://www.w3.org/1999/xlink">
    <!-- Generator: Sketch 52.5 (67469) - http://www.bohemiancoding.com/sketch -->
    <title>ill_BonusCard_rotation</title>
    <desc>Created with Sketch.</desc>
    <defs>
        <rect id="path-1" x="0" y="0" width="256" height="192"></rect>
        <path d="M21.2746785,0.620016958 L211.871981,0.620016958 C219.227011,0.620016958 221.894122,1.38582825 224.583011,2.82386176 C227.2719,4.26189528 229.382156,6.37215101 230.820189,9.0610399 C232.258223,11.7499288 233.024034,14.4170403 233.024034,21.7720699 L233.024034,127.36426 C233.024034,134.71929 232.258223,137.386401 230.820189,140.07529 C229.382156,142.764179 227.2719,144.874435 224.583011,146.312468 C221.894122,147.750502 219.227011,148.516313 211.871981,148.516313 L21.2746785,148.516313 C13.9196489,148.516313 11.2525375,147.750502 8.56364859,146.312468 C5.8747597,144.874435 3.76450397,142.764179 2.32647045,140.07529 C0.888436938,137.386401 0.122625646,134.71929 0.122625646,127.36426 L0.122625646,21.7720699 C0.122625646,14.4170403 0.888436938,11.7499288 2.32647045,9.0610399 C3.76450397,6.37215101 5.8747597,4.26189528 8.56364859,2.82386176 C11.2525375,1.38582825 13.9196489,0.620016958 21.2746785,0.620016958 Z" id="path-3"></path>
    </defs>
    <g id="Belarus" stroke="none" stroke-width="1" fill="none" fill-rule="evenodd">
        <g id="Corp_BelMir_000_UI_illustration" transform="translate(-94.000000, -1265.000000)">
            <g id="ill_BonusCard_rotation" transform="translate(94.000000, 1261.000000)">
                <g id="card-2">
                    <mask id="mask-2" fill="white">
                        <use xlink:href="#path-1"></use>
                    </mask>
                    <g id="Rectangle"></g>
                    <path d="M21.1520529,22 L210.847947,22 C218.202977,22 220.870088,22.7658113 223.558977,24.2038448 C226.247866,25.6418783 228.358122,27.7521341 229.796155,30.4410229 C231.234189,33.1299118 232,35.7970233 232,43.1520529 L232,149.847947 C232,157.202977 231.234189,159.870088 229.796155,162.558977 C228.358122,165.247866 226.247866,167.358122 223.558977,168.796155 C220.870088,170.234189 218.202977,171 210.847947,171 L21.1520529,171 C13.7970233,171 11.1299118,170.234189 8.44102295,168.796155 C5.75213406,167.358122 3.64187832,165.247866 2.20384481,162.558977 C0.765811292,159.870088 3.31019177e-16,157.202977 -5.69712169e-16,149.847947 L5.69712169e-16,43.1520529 C-3.31019177e-16,35.7970233 0.765811292,33.1299118 2.20384481,30.4410229 C3.64187832,27.7521341 5.75213406,25.6418783 8.44102295,24.2038448 C11.1299118,22.7658113 13.7970233,22 21.1520529,22 Z" id="card" fill="#F2F6FA" mask="url(#mask-2)"></path>
                </g>
                <g id="card-copy" transform="translate(131.159296, 94.685014) rotate(-10.000000) translate(-131.159296, -94.685014) translate(14.159296, 20.185014)">
                    <mask id="mask-4" fill="white">
                        <use xlink:href="#path-3"></use>
                    </mask>
                    <use id="card" fill="#0073E6" xlink:href="#path-3"></use>
                    <g id="cube" mask="url(#mask-4)">
                        <g transform="translate(31.039165, 36.666572)">
                            <path d="M164.55169,6.56383651 C162.205402,5.49420839 158.716487,4.12025633 153.946,2.76346624 C149.177417,1.41055022 145.498223,0.747377684 142.944525,0.425325391 C140.276567,0.0877543588 137.698477,1.5127248 136.514529,3.97032316 C135.362941,6.36401267 133.914527,9.91586886 132.592059,14.7344436 C131.271494,19.5530187 130.702907,23.3549121 130.469233,26.008331 C130.231765,28.7334121 131.710017,31.3135912 134.164859,32.4336 C136.51305,33.5012917 139.998157,34.8752429 144.764836,36.2320322 C149.535323,37.5868855 153.218326,38.2500588 155.772024,38.5721111 C158.441886,38.9096826 161.019976,37.4827753 162.203924,35.0271138 C163.353607,32.6334238 164.802021,29.0815676 166.12449,24.2629929 C167.446959,19.4444182 168.015546,15.6425248 168.24922,12.9891059 C168.488592,10.2620884 167.006531,7.68384526 164.55169,6.56383651" id="Cube-4" fill="#17C8F0" transform="translate(149.359387, 19.498693) rotate(1.000000) translate(-149.359387, -19.498693) "></path>
                            <path d="M125.909564,24.4175728 C125.489496,21.8581509 124.662659,18.2085221 123.028114,13.6289139 C121.391712,9.04741931 119.725867,5.70692178 118.433378,3.46794035 C117.105606,1.17048478 114.493465,-0.0239173891 111.924378,0.501742662 C109.466668,1.00479386 105.934214,1.92254409 101.395771,3.59071994 C96.8591852,5.26266822 93.5719099,6.85378031 91.3686681,8.06791579 C89.0614817,9.33672408 87.8108412,11.9504892 88.2420622,14.5796962 C88.6621306,17.1391181 89.4889671,20.7868609 91.1253691,25.3702415 C92.759914,29.9498497 94.4257594,33.2903472 95.7182483,35.5293287 C97.0460206,37.8286703 99.6563046,39.021186 102.227248,38.4955263 C104.683102,37.9924748 108.2137,37.0766102 112.750287,35.4084339 C117.288729,33.736486 120.579716,32.1434887 122.782958,30.9293532 C125.090145,29.6605449 126.338929,27.0467795 125.909564,24.4175728" id="Cube-3" fill="#00CD52" transform="translate(107.075537, 19.498693) rotate(1.000000) translate(-107.075537, -19.498693) "></path>
                            <path d="M77.7583479,6.56383648 C75.4119656,5.49420833 71.9229097,4.12025625 67.1541337,2.76346652 C62.3853585,1.41055046 58.7060152,0.747377891 56.1522141,0.425325576 C53.4822443,0.0877541203 50.9040497,1.51272454 49.7219588,3.97032329 C48.5703242,6.36401279 47.1218516,9.91586897 45.7993295,14.7344437 C44.4768073,19.5530184 43.9101011,23.3549122 43.6764175,26.0083311 C43.4370357,28.7334118 44.9172525,31.3135913 47.3721932,32.4336001 C49.7185751,33.5012914 53.2038224,34.8752427 57.970694,36.232032 C62.7432783,37.5868857 66.4245259,38.2500587 68.9783271,38.572111 C71.6482968,38.9096825 74.2283954,37.4827756 75.4104867,35.0271137 C76.5621213,32.6334242 78.0105939,29.081568 79.333116,24.2629933 C80.6537338,19.4444182 81.2223444,15.6425248 81.456028,12.9891059 C81.6954094,10.2620884 80.215193,7.68384565 77.7583479,6.56383648" id="Cube-2" fill="#FFBC16" transform="translate(62.566222, 19.498693) rotate(1.000000) translate(-62.566222, -19.498693) "></path>
                            <path d="M39.1164849,24.4175728 C38.6964292,21.858151 37.8677609,18.2085217 36.2332652,13.6289136 L36.2351215,13.6289139 C34.5987691,9.04741936 32.9329738,5.70692185 31.6386675,3.46794003 C30.3127919,1.17048486 27.7007299,-0.0239172945 25.1317202,0.501742773 C22.6722275,1.0047936 19.1417361,1.92254424 14.6015735,3.59071973 C10.0669807,5.26266843 6.77794814,6.85378015 4.57477264,8.06791564 C2.26951202,9.33672433 1.01890924,11.9504894 1.44826098,14.5796961 C1.86831671,17.1391179 2.69698461,20.7868611 4.3314811,25.3702414 C5.9659768,29.9498495 7.63177204,33.2903471 8.92607837,35.5293289 C10.2538107,37.8286705 12.864016,39.0211862 15.434882,38.4955265 C17.890662,37.9924749 21.4211539,37.0766103 25.9557475,35.4084336 C30.4959093,33.7364861 33.7849414,32.1434884 35.9899732,30.9293533 C38.2952339,29.6605446 39.5458366,27.0467795 39.1164849,24.4175728" id="Cube-1" fill="#FF3744" transform="translate(20.282373, 19.498694) rotate(1.000000) translate(-20.282373, -19.498694) "></path>
                        </g>
                    </g>
                    <g id="smile-1" mask="url(#mask-4)">
                        <g transform="translate(56.947907, 79.809436)">
                            <ellipse id="Oval" stroke="none" fill="#FFFFFF" fill-rule="evenodd" transform="translate(6.297319, 4.405048) rotate(11.000000) translate(-6.297319, -4.405048) " cx="6.29731895" cy="4.40504833" rx="3.33455256" ry="3.31209589"></ellipse>
                            <ellipse id="Oval-Copy" stroke="none" fill="#FFFFFF" fill-rule="evenodd" transform="translate(24.085441, 4.405048) rotate(11.000000) translate(-24.085441, -4.405048) " cx="24.0854414" cy="4.40504833" rx="3.33455256" ry="3.31209589"></ellipse>
                            <path d="M0.498799745,23.8384298 C6.99420315,27.4608767 12.7959469,28.6643053 17.9040309,27.4487156 C23.0121149,26.2331259 26.8444662,24.1720312 29.4010849,21.2654316" id="Path-5" stroke="#FFFFFF" stroke-width="5.65071465" fill="none" stroke-linecap="round" transform="translate(14.949942, 24.586142) rotate(11.000000) translate(-14.949942, -24.586142) "></path>
                            <path d="M2.27956381,23.7634211 C0.152574939,30.4903954 0.905425436,34.1442319 4.5381153,34.7249307 C8.17080517,35.3056295 9.99059111,32.5260475 9.99747313,26.3861846" id="Path-6" stroke="#FFFFFF" stroke-width="5.65071465" fill="none" transform="translate(5.549412, 29.281808) rotate(11.000000) translate(-5.549412, -29.281808) "></path>
                        </g>
                    </g>
                    <g id="smile-2" mask="url(#mask-4)">
                        <g transform="translate(144.113194, 79.383538)">
                            <ellipse id="Oval-Copy-2" stroke="none" fill="#FFFFFF" fill-rule="evenodd" transform="translate(4.073804, 4.480348) rotate(11.000000) translate(-4.073804, -4.480348) " cx="4.07380364" cy="4.48034831" rx="3.33662111" ry="3.36664476"></ellipse>
                            <path d="M2.22351531,25.036832 C8.72439541,28.7277654 14.5287526,29.9580766 19.636587,28.7277654 C24.7444214,27.4974543 28.5752971,25.4059253 31.1292143,22.4531785" id="Path-5-Copy" stroke="#FFFFFF" stroke-width="5.65071465" fill="none" stroke-linecap="round"></path>
                            <path d="M22.5512667,5.64151422 L24.7710827,3.40168802" id="Path-7" stroke="#FFFFFF" stroke-width="5.65071465" fill="none" stroke-linecap="round" transform="translate(23.661175, 4.521601) rotate(11.000000) translate(-23.661175, -4.521601) "></path>
                        </g>
                    </g>
                </g>
            </g>
        </g>
    </g>
</svg>