<?xml version="1.0" encoding="UTF-8"?>
<svg width="116px" height="101px" viewBox="0 0 116 101" version="1.1" xmlns="http://www.w3.org/2000/svg" xmlns:xlink="http://www.w3.org/1999/xlink">
    <!-- Generator: Sketch 52.5 (67469) - http://www.bohemiancoding.com/sketch -->
    <title>ill_attention</title>
    <desc>Created with Sketch.</desc>
    <g id="Belarus" stroke="none" stroke-width="1" fill="none" fill-rule="evenodd">
        <g id="Corp_BelMir_000_UI_illustration" transform="translate(-1471.000000, -2094.000000)">
            <g id="ill_attention" transform="translate(1466.000000, 2084.000000)">
                <g id="Group-7" transform="translate(5.000000, 10.000000)">
                    <polygon id="Path-118-Copy" fill="#F72B17" transform="translate(64.322143, 51.878226) rotate(3.000000) translate(-64.322143, -51.878226) " points="63.0917252 2.74963897 118.146859 98.2346736 10.4974267 101.006813"></polygon>
                    <polygon id="Path-118-Copy-2" fill="#FF8717" points="56.5138913 0.509803922 115.572816 91.9225148 0 94.627451"></polygon>
                    <path d="M52.0191812,42.2403248 L68.28745,41.7765537 L64.5510126,69.5447561 L54.8238908,69.4025351 L52.0191812,42.2403248 Z M54.8366421,74.9480881 L64.1919514,75.0855315 L63.7544745,83.4027106 L54.9828737,83.3599899 L54.8366421,74.9480881 Z" id="Combined-Shape-Copy" fill="#F72B17" transform="translate(60.153316, 62.589632) rotate(2.000000) translate(-60.153316, -62.589632) "></path>
                    <path d="M47.101103,36.5545223 L64.0058685,36.0638234 L60.1232428,65.4443253 L50.015547,65.2938465 L47.101103,36.5545223 Z M49.3214135,71.221108 L59.6521035,71.3597739 L59.1690155,79.7509311 L49.4828911,79.7078303 L49.3214135,71.221108 Z" id="Combined-Shape" fill="#FFFFFF" transform="translate(55.553486, 57.907377) rotate(3.000000) translate(-55.553486, -57.907377) "></path>
                </g>
            </g>
        </g>
    </g>
</svg>