<?xml version="1.0" encoding="UTF-8"?>
<svg width="36px" height="36px" viewBox="0 0 36 36" version="1.1" xmlns="http://www.w3.org/2000/svg" xmlns:xlink="http://www.w3.org/1999/xlink">
    <!-- Generator: Sketch 52.5 (67469) - http://www.bohemiancoding.com/sketch -->
    <title>Icon / Social / Instagram</title>
    <desc>Created with Sketch.</desc>
    <defs>
        <path d="M37.3755571,28.6256272 C37.2804939,30.7070057 36.9328021,31.8372845 36.6405016,32.5894626 C36.2534185,33.5857547 35.7908276,34.2968572 35.0437021,35.0439828 C34.2968572,35.7908276 33.5856611,36.2534185 32.589369,36.6406887 C31.8370974,36.9328957 30.7068186,37.2807746 28.6256272,37.3756506 C26.3749876,37.4783862 25.7000952,37.5 19.9999532,37.5 C14.2998113,37.5 13.6249188,37.4783862 11.3742792,37.3756506 C9.29318144,37.2807746 8.16280907,36.9328957 7.41063098,36.6406887 C6.41424531,36.2534185 5.70314275,35.7908276 4.95620437,35.0439828 C4.20926599,34.2968572 3.74667506,33.5857547 3.35949843,32.5894626 C3.06719785,31.8372845 2.719319,30.7070057 2.62434938,28.6256272 C2.52170734,26.3748005 2.5,25.6998145 2.5,19.9999532 C2.5,14.3002791 2.52170734,13.6252931 2.62434938,11.3743728 C2.719319,9.29318144 3.06719785,8.16290264 3.35949843,7.41063098 C3.74667506,6.41424531 4.20926599,5.70332988 4.95620437,4.95620437 C5.70314275,4.20935955 6.41424531,3.74676863 7.41063098,3.35949843 C8.16280907,3.06719785 9.29318144,2.71941257 11.3742792,2.62434938 C13.6252931,2.52180091 14.3002791,2.5 19.9999532,2.5 C25.6996273,2.5 26.3747069,2.52180091 28.6256272,2.62434938 C30.7068186,2.71941257 31.8370974,3.06719785 32.589369,3.35949843 C33.5856611,3.74676863 34.2968572,4.20935955 35.0437021,4.95620437 C35.7908276,5.70332988 36.2534185,6.41424531 36.6405016,7.41063098 C36.9328021,8.16290264 37.2804939,9.29318144 37.3755571,11.3743728 C37.4781991,13.6252931 37.5,14.3002791 37.5,19.9999532 C37.5,25.6998145 37.4781991,26.3748005 37.3755571,28.6256272 Z M19.9999439,9.03852251 C13.946122,9.03852251 9.03848508,13.9462529 9.03848508,20.0000749 C9.03848508,26.0539903 13.946122,30.9614401 19.9999439,30.9614401 C26.0537658,30.9614401 30.9614026,26.0539903 30.9614026,20.0000749 C30.9614026,13.9462529 26.0537658,9.03852251 19.9999439,9.03852251 Z M19.9999439,27.1154045 C16.0701666,27.1154045 12.8845207,23.9297586 12.8845207,20.0000749 C12.8845207,16.0702976 16.0701666,12.8846517 19.9999439,12.8846517 C23.9297211,12.8846517 27.115367,16.0702976 27.115367,20.0000749 C27.115367,23.9297586 23.9297211,27.1154045 19.9999439,27.1154045 Z M31.3946325,6.04388251 C29.9800063,6.04388251 28.8329791,7.19062895 28.8329791,8.60544234 C28.8329791,10.0200686 29.9800063,11.1670022 31.3946325,11.1670022 C32.8093523,11.1670022 33.9561923,10.0200686 33.9561923,8.60544234 C33.9561923,7.19062895 32.8093523,6.04388251 31.3946325,6.04388251 Z" id="path-1"></path>
    </defs>
    <g id="Belarus" stroke="none" stroke-width="1" fill="none" fill-rule="evenodd">
        <g id="Corp_BelMir_000_UI_illustration" transform="translate(-356.000000, -2610.000000)">
            <g id="Icon-/-Social-/-Instagram" transform="translate(354.000000, 2608.000000)">
                <mask id="mask-2" fill="white">
                    <use xlink:href="#path-1"></use>
                </mask>
                <use id="Icon-/-Instagram" fill="#283C50" fill-rule="evenodd" xlink:href="#path-1"></use>
                <g id="Color-/-1.-Base-/-Base-Dark-1" mask="url(#mask-2)" fill="#172029" fill-rule="evenodd">
                    <rect id="Fill" x="0" y="0" width="40" height="40"></rect>
                </g>
            </g>
        </g>
    </g>
</svg>