<?xml version="1.0" encoding="UTF-8"?>
<svg width="40px" height="25px" viewBox="0 0 40 25" version="1.1" xmlns="http://www.w3.org/2000/svg" xmlns:xlink="http://www.w3.org/1999/xlink">
    <!-- Generator: Sketch 52.5 (67469) - http://www.bohemiancoding.com/sketch -->
    <title>Icon / Social / VK</title>
    <desc>Created with Sketch.</desc>
    <defs>
        <path d="M39.0822485,9.10850049 C39.3604385,8.18140907 39.0822485,7.5 37.7588146,7.5 L33.382793,7.5 C32.2700332,7.5 31.757101,8.0885749 31.4789111,8.73747638 C31.4789111,8.73747638 29.2537041,14.1618677 26.1010931,17.6851902 C25.0811675,18.7051158 24.6176218,19.0298791 24.0609294,19.0298791 C23.783052,19.0298791 23.380458,18.7051158 23.380458,17.7780243 L23.380458,9.10850049 C23.380458,7.99574073 23.0572576,7.5 22.1301662,7.5 L15.2535609,7.5 C14.5583986,7.5 14.1401759,8.01637054 14.1401759,8.50585981 C14.1401759,9.56079358 15.7161688,9.80397535 15.8787068,12.770918 L15.8787068,19.2149223 C15.8787068,20.6280647 15.6236472,20.8840619 15.0672674,20.8840619 C13.5837961,20.8840619 9.97514114,15.4359151 7.83495402,9.20133467 C7.4154811,7.98948927 6.99475788,7.5 5.8763718,7.5 L1.50035025,7.5 C0.250058375,7.5 0,8.0885749 0,8.73747638 C0,9.89649695 1.48347131,15.645339 6.90755003,23.2486764 C10.5237067,28.440826 15.6186461,31.2555456 20.2547283,31.2555456 C23.0363152,31.2555456 23.380458,30.6303997 23.380458,29.5535858 L23.380458,25.6292322 C23.380458,24.3789403 23.643957,24.1295071 24.5247877,24.1295071 C25.1736891,24.1295071 26.2864489,24.4539578 28.88268,26.9573547 C31.8496226,29.9242973 32.3391119,31.2555456 34.0079389,31.2555456 L38.3839605,31.2555456 C39.6342524,31.2555456 40.2593983,30.6303997 39.8986891,29.3966741 C39.504222,28.1670121 38.0873288,26.3831582 36.2078275,24.2682895 C35.1879019,23.0630081 33.6578572,21.7652051 33.1943115,21.1159911 C32.5450975,20.2817338 32.7307658,19.9103971 33.1943115,19.1686615 C33.1943115,19.1686615 38.5258686,11.6584708 39.0822485,9.10850049" id="path-1"></path>
    </defs>
    <g id="Belarus" stroke="none" stroke-width="1" fill="none" fill-rule="evenodd">
        <g id="Corp_BelMir_000_UI_illustration" transform="translate(-234.000000, -2615.000000)">
            <g id="Icon-/-Social-/-VK" transform="translate(234.000000, 2608.000000)">
                <mask id="mask-2" fill="white">
                    <use xlink:href="#path-1"></use>
                </mask>
                <use id="Fill-1" fill="#FFFFFF" fill-rule="evenodd" xlink:href="#path-1"></use>
                <g id="Color-/-8.-Social-/-VKontakte" mask="url(#mask-2)" fill="#45668E" fill-rule="evenodd">
                    <rect id="Fill" x="0" y="0" width="40" height="40"></rect>
                </g>
            </g>
        </g>
    </g>
</svg>