<?xml version="1.0" encoding="UTF-8"?>
<svg width="14px" height="14px" viewBox="0 0 14 14" version="1.1" xmlns="http://www.w3.org/2000/svg" xmlns:xlink="http://www.w3.org/1999/xlink">
    <!-- Generator: Sketch 52.5 (67469) - http://www.bohemiancoding.com/sketch -->
    <title>Icon / Close / Black</title>
    <desc>Created with Sketch.</desc>
    <defs>
        <path d="M10.001,5.999 L10.001,1.5 C10.001,0.671 9.33,0 8.501,0 L7.499,0 C6.67,0 5.999,0.671 5.999,1.5 L5.999,5.999 L1.5,5.999 C0.671,5.999 0,6.67 0,7.499 L0,8.501 C0,9.33 0.671,10.001 1.5,10.001 L5.999,10.001 L5.999,14.5 C5.999,15.329 6.67,16 7.499,16 L8.501,16 C9.33,16 10.001,15.329 10.001,14.5 L10.001,10.001 L14.5,10.001 C15.329,10.001 16,9.33 16,8.501 L16,7.499 C16,6.67 15.329,5.999 14.5,5.999 L10.001,5.999 Z" id="path-1"></path>
    </defs>
    <g id="CorpSite" stroke="none" stroke-width="1" fill="none" fill-rule="evenodd">
        <g id="Corp_Invest_Assets" transform="translate(-329.000000, -823.000000)">
            <g id="Icon-/-Close" transform="translate(328.000000, 822.000000)">
                <mask id="mask-2" fill="white">
                    <use xlink:href="#path-1"></use>
                </mask>
                <use id="Page-1" fill="#172029" fill-rule="evenodd" transform="translate(8.000000, 8.000000) rotate(-45.000000) translate(-8.000000, -8.000000) " xlink:href="#path-1"></use>
            </g>
        </g>
    </g>
</svg>