<svg width="8" height="8" viewBox="0 0 8 8" fill="none" xmlns="http://www.w3.org/2000/svg">
<mask id="mask0" mask-type="alpha" maskUnits="userSpaceOnUse" x="0" y="1" width="8" height="6">
<path fill-rule="evenodd" clip-rule="evenodd" d="M6.26368 1.51752C6.56385 1.19323 7.03775 1.16008 7.3752 1.43825C7.4544 1.5031 7.53427 1.58021 7.61215 1.67317C7.73461 1.8173 7.8238 1.94989 7.8877 2.06736C8.05276 2.36425 8.0308 2.73322 7.85508 3.02219C7.63345 3.38539 7.18285 4.0181 6.28098 5.00464C5.64269 5.70365 5.11222 6.17998 4.72419 6.49057C4.29156 6.83648 3.70784 6.83648 3.27588 6.49057C2.88785 6.17998 2.35671 5.70365 1.71842 5.00464C0.816553 4.0181 0.36662 3.38539 0.144981 3.02219C-0.0313981 2.73322 -0.0520312 2.36425 0.111702 2.06736C0.176263 1.94989 0.264786 1.8173 0.387253 1.67317C0.465126 1.58021 0.545662 1.5031 0.6242 1.43825C0.96165 1.16008 1.43554 1.19323 1.73639 1.51752L4.00003 4.00008L6.26368 1.51752Z" fill="white"/>
</mask>
<g mask="url(#mask0)">
<rect width="8" height="8" fill="#172029"/>
</g>
</svg>
