<svg width="16" height="16" viewBox="0 0 16 16" fill="none" xmlns="http://www.w3.org/2000/svg">
<mask id="mask0" mask-type="alpha" maskUnits="userSpaceOnUse" x="2" y="0" width="12" height="16">
<path fill-rule="evenodd" clip-rule="evenodd" d="M3.03503 12.5274C2.38647 13.1277 2.32017 14.0755 2.87649 14.7504C3.00621 14.9088 3.16042 15.0685 3.34634 15.2243C3.6346 15.4692 3.89979 15.6476 4.13471 15.7754C4.72851 16.1055 5.46643 16.0616 6.04438 15.7102C6.77077 15.2669 8.03619 14.3657 10.0093 12.562C11.4073 11.2854 12.36 10.2244 12.9811 9.44837C13.673 8.58312 13.673 7.41568 12.9811 6.55176C12.36 5.77569 11.4073 4.71342 10.0093 3.43683C8.03619 1.63311 6.77077 0.73324 6.04438 0.289962C5.46643 -0.0627963 4.72851 -0.104062 4.13471 0.223404C3.89979 0.352527 3.6346 0.529572 3.34634 0.774506C3.16042 0.930252 3.00621 1.09132 2.87649 1.2484C2.32017 1.9233 2.38647 2.87109 3.03503 3.47278L8.00016 8.00006L3.03503 12.5274Z" fill="white"/>
</mask>
<g mask="url(#mask0)">
<rect x="16" width="16" height="16" transform="rotate(90 16 0)" fill="#172029"/>
</g>
</svg>
