<?xml version="1.0" encoding="UTF-8"?>
<svg width="80px" height="40px" viewBox="0 0 80 40" version="1.1" xmlns="http://www.w3.org/2000/svg" xmlns:xlink="http://www.w3.org/1999/xlink">
    <!-- Generator: Sketch 52.5 (67469) - http://www.bohemiancoding.com/sketch -->
    <g>
        <defs>
            <path d="M19.326,15.659 C18.829,17.502 17.377,18.92 15.527,19.392 C14.227,19.723 12.418,20 10,20 C7.547,20 5.75,19.74 4.47,19.421 C2.621,18.961 1.181,17.529 0.681,15.691 C0.318,14.355 0,12.477 0,10 C0,7.562 0.308,5.706 0.664,4.375 C1.148,2.562 2.562,1.15 4.375,0.665 C5.706,0.309 7.563,0 10,0 C12.414,0 14.259,0.303 15.588,0.655 C17.383,1.13 18.79,2.522 19.284,4.312 C19.661,5.68 20,7.582 20,10 C20,12.458 19.686,14.326 19.326,15.659" id="path-1"></path>
        </defs>
        <g id="Belarus" stroke="none" stroke-width="1" fill="none" fill-rule="evenodd">
            <g id="Corp_BelMir_000_UI_illustration" transform="translate(-218.000000, -131.000000)">
                <g id="Checkbox-/-Element-/-Off-/-Default" transform="translate(218.000000, 131.000000)">
                    <mask id="mask-2" fill="white">
                        <use xlink:href="#path-1"></use>
                    </mask>
                    <path stroke="#CCDBEB" stroke-width="1" d="M18.8432453,15.528816 L18.8432937,15.5286367 C19.2586887,13.9905213 19.5,12.15211 19.5,10 C19.5,7.89595351 19.2424866,6.04332173 18.802018,4.44501627 C18.355355,2.82654122 17.0832384,1.56788617 15.4599837,1.13833409 C13.9331899,0.733946244 12.1180308,0.5 10,0.5 C7.86474316,0.5 6.03780121,0.737829652 4.50421267,1.14801562 C2.86310496,1.58703229 1.58470589,2.86468304 1.14702096,4.50419268 C0.7373543,6.03583967 0.5,7.86263753 0.5,10 C0.5,12.1672792 0.743991343,14.0158983 1.16346662,15.5597523 C1.61807639,17.2308978 2.92542457,18.5214947 4.59091104,18.9358397 C6.03123946,19.2947965 7.82328441,19.5 10,19.5 C12.1335732,19.5 13.9254116,19.2838363 15.4033921,18.9075198 C17.083396,18.4788917 18.3945436,17.1927136 18.8432453,15.528816 Z"></path>
                </g>
            </g>
        </g>
    </g>
    <g transform="translate(20, 0)">
        <defs>
            <path d="M19.326,15.659 C18.829,17.502 17.377,18.92 15.527,19.392 C14.227,19.723 12.418,20 10,20 C7.547,20 5.75,19.74 4.47,19.421 C2.621,18.961 1.181,17.529 0.681,15.691 C0.318,14.355 0,12.477 0,10 C0,7.562 0.308,5.706 0.664,4.375 C1.148,2.562 2.562,1.15 4.375,0.665 C5.706,0.309 7.563,0 10,0 C12.414,0 14.259,0.303 15.588,0.655 C17.383,1.13 18.79,2.522 19.284,4.312 C19.661,5.68 20,7.582 20,10 C20,12.458 19.686,14.326 19.326,15.659" id="path-1"></path>
        </defs>
        <g id="Belarus" stroke="none" stroke-width="1" fill="none" fill-rule="evenodd">
            <g id="Corp_BelMir_000_UI_illustration" transform="translate(-380.000000, -132.000000)">
                <g id="Checkbox-/-Element-/-Off-/-Hover" transform="translate(380.000000, 132.000000)">
                    <mask id="mask-2" fill="white">
                        <use xlink:href="#path-1"></use>
                    </mask>
                    <path stroke="#2788E9" stroke-width="1" d="M18.8432453,15.528816 L18.8432937,15.5286367 C19.2586887,13.9905213 19.5,12.15211 19.5,10 C19.5,7.89595351 19.2424866,6.04332173 18.802018,4.44501627 C18.355355,2.82654122 17.0832384,1.56788617 15.4599837,1.13833409 C13.9331899,0.733946244 12.1180308,0.5 10,0.5 C7.86474316,0.5 6.03780121,0.737829652 4.50421267,1.14801562 C2.86310496,1.58703229 1.58470589,2.86468304 1.14702096,4.50419268 C0.7373543,6.03583967 0.5,7.86263753 0.5,10 C0.5,12.1672792 0.743991343,14.0158983 1.16346662,15.5597523 C1.61807639,17.2308978 2.92542457,18.5214947 4.59091104,18.9358397 C6.03123946,19.2947965 7.82328441,19.5 10,19.5 C12.1335732,19.5 13.9254116,19.2838363 15.4033921,18.9075198 C17.083396,18.4788917 18.3945436,17.1927136 18.8432453,15.528816 Z"></path>
                </g>
            </g>
        </g>
    </g>
    <g transform="translate(40, 0)">
        <defs>
            <path d="M19.326,15.659 C18.829,17.502 17.377,18.92 15.527,19.392 C14.227,19.723 12.418,20 10,20 C7.547,20 5.75,19.74 4.47,19.421 C2.621,18.961 1.181,17.529 0.681,15.691 C0.318,14.355 0,12.477 0,10 C0,7.562 0.308,5.706 0.664,4.375 C1.148,2.562 2.562,1.15 4.375,0.665 C5.706,0.309 7.563,0 10,0 C12.414,0 14.259,0.303 15.588,0.655 C17.383,1.13 18.79,2.522 19.284,4.312 C19.661,5.68 20,7.582 20,10 C20,12.458 19.686,14.326 19.326,15.659" id="path-1"></path>
        </defs>
        <g id="Belarus" stroke="none" stroke-width="1" fill="none" fill-rule="evenodd">
            <g id="Corp_BelMir_000_UI_illustration" transform="translate(-137.000000, -130.000000)">
                <g id="Checkbox-/-Element-/-Off-/-Active" transform="translate(137.000000, 130.000000)">
                    <mask id="mask-2" fill="white">
                        <use xlink:href="#path-1"></use>
                    </mask>
                    <path stroke="#0462BF" stroke-width="1" d="M18.8432453,15.528816 L18.8432937,15.5286367 C19.2586887,13.9905213 19.5,12.15211 19.5,10 C19.5,7.89595351 19.2424866,6.04332173 18.802018,4.44501627 C18.355355,2.82654122 17.0832384,1.56788617 15.4599837,1.13833409 C13.9331899,0.733946244 12.1180308,0.5 10,0.5 C7.86474316,0.5 6.03780121,0.737829652 4.50421267,1.14801562 C2.86310496,1.58703229 1.58470589,2.86468304 1.14702096,4.50419268 C0.7373543,6.03583967 0.5,7.86263753 0.5,10 C0.5,12.1672792 0.743991343,14.0158983 1.16346662,15.5597523 C1.61807639,17.2308978 2.92542457,18.5214947 4.59091104,18.9358397 C6.03123946,19.2947965 7.82328441,19.5 10,19.5 C12.1335732,19.5 13.9254116,19.2838363 15.4033921,18.9075198 C17.083396,18.4788917 18.3945436,17.1927136 18.8432453,15.528816 Z"></path>
                </g>
            </g>
        </g>
    </g>
    <g transform="translate(60, 0)">
        <defs>
            <path d="M19.326,15.659 C18.829,17.502 17.377,18.92 15.527,19.392 C14.227,19.723 12.418,20 10,20 C7.547,20 5.75,19.74 4.47,19.421 C2.621,18.961 1.181,17.529 0.681,15.691 C0.318,14.355 0,12.477 0,10 C0,7.562 0.308,5.706 0.664,4.375 C1.148,2.562 2.562,1.15 4.375,0.665 C5.706,0.309 7.563,0 10,0 C12.414,0 14.259,0.303 15.588,0.655 C17.383,1.13 18.79,2.522 19.284,4.312 C19.661,5.68 20,7.582 20,10 C20,12.458 19.686,14.326 19.326,15.659" id="path-1"></path>
        </defs>
        <g id="Belarus" stroke="none" stroke-width="1" fill="none" fill-rule="evenodd">
            <g id="Corp_BelMir_000_UI_illustration" transform="translate(-299.000000, -129.000000)">
                <g id="Checkbox-/-Element-/-Off-/-Disabled" transform="translate(299.000000, 129.000000)">
                    <mask id="mask-2" fill="white">
                        <use xlink:href="#path-1"></use>
                    </mask>
                    <path stroke="#E1EAF4" stroke-width="1" d="M18.8432453,15.528816 L18.8432937,15.5286367 C19.2586887,13.9905213 19.5,12.15211 19.5,10 C19.5,7.89595351 19.2424866,6.04332173 18.802018,4.44501627 C18.355355,2.82654122 17.0832384,1.56788617 15.4599837,1.13833409 C13.9331899,0.733946244 12.1180308,0.5 10,0.5 C7.86474316,0.5 6.03780121,0.737829652 4.50421267,1.14801562 C2.86310496,1.58703229 1.58470589,2.86468304 1.14702096,4.50419268 C0.7373543,6.03583967 0.5,7.86263753 0.5,10 C0.5,12.1672792 0.743991343,14.0158983 1.16346662,15.5597523 C1.61807639,17.2308978 2.92542457,18.5214947 4.59091104,18.9358397 C6.03123946,19.2947965 7.82328441,19.5 10,19.5 C12.1335732,19.5 13.9254116,19.2838363 15.4033921,18.9075198 C17.083396,18.4788917 18.3945436,17.1927136 18.8432453,15.528816 Z"></path>
                </g>
            </g>
        </g>
    </g>
    <g transform="translate(0, 20)">
        <defs>
            <path d="M19.326,15.659 C18.829,17.502 17.377,18.92 15.527,19.392 C14.227,19.723 12.418,20 10,20 C7.547,20 5.75,19.74 4.47,19.421 C2.621,18.961 1.181,17.529 0.681,15.691 C0.318,14.355 0,12.477 0,10 C0,7.562 0.308,5.706 0.664,4.375 C1.148,2.562 2.562,1.15 4.375,0.665 C5.706,0.309 7.563,0 10,0 C12.414,0 14.259,0.303 15.588,0.655 C17.383,1.13 18.79,2.522 19.284,4.312 C19.661,5.68 20,7.582 20,10 C20,12.458 19.686,14.326 19.326,15.659" id="path-1"></path>
            <path d="M3.4806,5.28 C2.8786,4.676 1.9286,4.613 1.2526,5.132 C1.0936,5.253 0.9336,5.397 0.7776,5.57 C0.5316,5.839 0.3536,6.086 0.2256,6.305 C-0.1054,6.858 -0.0614,7.546 0.2906,8.085 C0.7346,8.761 1.2266,9.411 2.2606,10.498 C3.5196,11.819 4.3426,12.584 5.1206,13.163 C5.9876,13.807 7.1576,13.807 8.0236,13.163 C8.8016,12.584 9.8656,11.696 11.1456,10.393 C12.9536,8.554 15.3096,5.98 15.7536,5.303 C16.1066,4.764 16.1486,4.077 15.8196,3.524 C15.6906,3.304 15.5136,3.057 15.2676,2.789 C15.1116,2.615 14.9506,2.472 14.7936,2.351 C14.1166,1.832 13.1666,1.894 12.5636,2.499 L6.5716,8.521 L3.4806,5.28 Z" id="path-3"></path>
        </defs>
        <g id="Belarus" stroke="none" stroke-width="1" fill="none" fill-rule="evenodd">
            <g id="Corp_BelMir_000_UI_illustration" transform="translate(-218.000000, -186.000000)">
                <g id="Checkbox-/-Element-/-On-/-Default" transform="translate(218.000000, 186.000000)">
                    <mask id="mask-2" fill="white">
                        <use xlink:href="#path-1"></use>
                    </mask>
                    <use id="Container" fill="#0073E6" fill-rule="evenodd" xlink:href="#path-1"></use>
                    <g id="Icon-/-Check" mask="url(#mask-2)">
                        <g transform="translate(2.000000, 2.000000)">
                            <mask id="mask-4" fill="white">
                                <use xlink:href="#path-3"></use>
                            </mask>
                            <use id="Fill-1" stroke="none" fill="#3183E2" fill-rule="evenodd" xlink:href="#path-3"></use>
                            <g id="Color-/-1.-Base-/-Base-Light-5" stroke="none" fill="none" mask="url(#mask-4)" fill-rule="evenodd">
                                <rect id="Fill" fill="#FFFFFF" x="0" y="0" width="16" height="16"></rect>
                            </g>
                        </g>
                    </g>
                </g>
            </g>
        </g>
    </g>
    <g transform="translate(20, 20)">
        <defs>
            <path d="M19.326,15.659 C18.829,17.502 17.377,18.92 15.527,19.392 C14.227,19.723 12.418,20 10,20 C7.547,20 5.75,19.74 4.47,19.421 C2.621,18.961 1.181,17.529 0.681,15.691 C0.318,14.355 0,12.477 0,10 C0,7.562 0.308,5.706 0.664,4.375 C1.148,2.562 2.562,1.15 4.375,0.665 C5.706,0.309 7.563,0 10,0 C12.414,0 14.259,0.303 15.588,0.655 C17.383,1.13 18.79,2.522 19.284,4.312 C19.661,5.68 20,7.582 20,10 C20,12.458 19.686,14.326 19.326,15.659" id="path-1"></path>
            <path d="M3.4806,5.28 C2.8786,4.676 1.9286,4.613 1.2526,5.132 C1.0936,5.253 0.9336,5.397 0.7776,5.57 C0.5316,5.839 0.3536,6.086 0.2256,6.305 C-0.1054,6.858 -0.0614,7.546 0.2906,8.085 C0.7346,8.761 1.2266,9.411 2.2606,10.498 C3.5196,11.819 4.3426,12.584 5.1206,13.163 C5.9876,13.807 7.1576,13.807 8.0236,13.163 C8.8016,12.584 9.8656,11.696 11.1456,10.393 C12.9536,8.554 15.3096,5.98 15.7536,5.303 C16.1066,4.764 16.1486,4.077 15.8196,3.524 C15.6906,3.304 15.5136,3.057 15.2676,2.789 C15.1116,2.615 14.9506,2.472 14.7936,2.351 C14.1166,1.832 13.1666,1.894 12.5636,2.499 L6.5716,8.521 L3.4806,5.28 Z" id="path-3"></path>
        </defs>
        <g id="Belarus" stroke="none" stroke-width="1" fill="none" fill-rule="evenodd">
            <g id="Corp_BelMir_000_UI_illustration" transform="translate(-380.000000, -186.000000)">
                <g id="Checkbox-/-Element-/-On-/-Hover" transform="translate(380.000000, 186.000000)">
                    <mask id="mask-2" fill="white">
                        <use xlink:href="#path-1"></use>
                    </mask>
                    <use id="Container" fill="#2687E9" fill-rule="evenodd" xlink:href="#path-1"></use>
                    <g id="Icon-/-Check" mask="url(#mask-2)">
                        <g transform="translate(2.000000, 2.000000)">
                            <mask id="mask-4" fill="white">
                                <use xlink:href="#path-3"></use>
                            </mask>
                            <use id="Fill-1" stroke="none" fill="#3183E2" fill-rule="evenodd" xlink:href="#path-3"></use>
                            <g id="Color-/-1.-Base-/-Base-Light-5" stroke="none" fill="none" mask="url(#mask-4)" fill-rule="evenodd">
                                <rect id="Fill" fill="#FFFFFF" x="0" y="0" width="16" height="16"></rect>
                            </g>
                        </g>
                    </g>
                </g>
            </g>
        </g>
    </g>
    <g transform="translate(40, 20)">
        <desc>Created with Sketch.</desc>
        <defs>
            <path d="M19.326,15.659 C18.829,17.502 17.377,18.92 15.527,19.392 C14.227,19.723 12.418,20 10,20 C7.547,20 5.75,19.74 4.47,19.421 C2.621,18.961 1.181,17.529 0.681,15.691 C0.318,14.355 0,12.477 0,10 C0,7.562 0.308,5.706 0.664,4.375 C1.148,2.562 2.562,1.15 4.375,0.665 C5.706,0.309 7.563,0 10,0 C12.414,0 14.259,0.303 15.588,0.655 C17.383,1.13 18.79,2.522 19.284,4.312 C19.661,5.68 20,7.582 20,10 C20,12.458 19.686,14.326 19.326,15.659" id="path-1"></path>
            <path d="M3.4806,5.28 C2.8786,4.676 1.9286,4.613 1.2526,5.132 C1.0936,5.253 0.9336,5.397 0.7776,5.57 C0.5316,5.839 0.3536,6.086 0.2256,6.305 C-0.1054,6.858 -0.0614,7.546 0.2906,8.085 C0.7346,8.761 1.2266,9.411 2.2606,10.498 C3.5196,11.819 4.3426,12.584 5.1206,13.163 C5.9876,13.807 7.1576,13.807 8.0236,13.163 C8.8016,12.584 9.8656,11.696 11.1456,10.393 C12.9536,8.554 15.3096,5.98 15.7536,5.303 C16.1066,4.764 16.1486,4.077 15.8196,3.524 C15.6906,3.304 15.5136,3.057 15.2676,2.789 C15.1116,2.615 14.9506,2.472 14.7936,2.351 C14.1166,1.832 13.1666,1.894 12.5636,2.499 L6.5716,8.521 L3.4806,5.28 Z" id="path-3"></path>
        </defs>
        <g id="Belarus" stroke="none" stroke-width="1" fill="none" fill-rule="evenodd">
            <g id="Corp_BelMir_000_UI_illustration" transform="translate(-137.000000, -186.000000)">
                <g id="Checkbox-/-Element-/-On-/-Active" transform="translate(137.000000, 186.000000)">
                    <mask id="mask-2" fill="white">
                        <use xlink:href="#path-1"></use>
                    </mask>
                    <use id="Container" fill="#0061C3" fill-rule="evenodd" xlink:href="#path-1"></use>
                    <g id="Icon-/-Check" mask="url(#mask-2)">
                        <g transform="translate(2.000000, 2.000000)">
                            <mask id="mask-4" fill="white">
                                <use xlink:href="#path-3"></use>
                            </mask>
                            <use id="Fill-1" stroke="none" fill="#3183E2" fill-rule="evenodd" xlink:href="#path-3"></use>
                            <g id="Color-/-1.-Base-/-Base-Light-5" stroke="none" fill="none" mask="url(#mask-4)" fill-rule="evenodd">
                                <rect id="Fill" fill="#FFFFFF" x="0" y="0" width="16" height="16"></rect>
                            </g>
                        </g>
                    </g>
                </g>
            </g>
        </g>
    </g>
    <g transform="translate(60, 20)">
        <defs>
            <path d="M19.326,15.659 C18.829,17.502 17.377,18.92 15.527,19.392 C14.227,19.723 12.418,20 10,20 C7.547,20 5.75,19.74 4.47,19.421 C2.621,18.961 1.181,17.529 0.681,15.691 C0.318,14.355 0,12.477 0,10 C0,7.562 0.308,5.706 0.664,4.375 C1.148,2.562 2.562,1.15 4.375,0.665 C5.706,0.309 7.563,0 10,0 C12.414,0 14.259,0.303 15.588,0.655 C17.383,1.13 18.79,2.522 19.284,4.312 C19.661,5.68 20,7.582 20,10 C20,12.458 19.686,14.326 19.326,15.659" id="path-1"></path>
            <path d="M3.4806,5.28 C2.8786,4.676 1.9286,4.613 1.2526,5.132 C1.0936,5.253 0.9336,5.397 0.7776,5.57 C0.5316,5.839 0.3536,6.086 0.2256,6.305 C-0.1054,6.858 -0.0614,7.546 0.2906,8.085 C0.7346,8.761 1.2266,9.411 2.2606,10.498 C3.5196,11.819 4.3426,12.584 5.1206,13.163 C5.9876,13.807 7.1576,13.807 8.0236,13.163 C8.8016,12.584 9.8656,11.696 11.1456,10.393 C12.9536,8.554 15.3096,5.98 15.7536,5.303 C16.1066,4.764 16.1486,4.077 15.8196,3.524 C15.6906,3.304 15.5136,3.057 15.2676,2.789 C15.1116,2.615 14.9506,2.472 14.7936,2.351 C14.1166,1.832 13.1666,1.894 12.5636,2.499 L6.5716,8.521 L3.4806,5.28 Z" id="path-3"></path>
        </defs>
        <g id="Belarus" stroke="none" stroke-width="1" fill="none" fill-rule="evenodd">
            <g id="Corp_BelMir_000_UI_illustration" transform="translate(-299.000000, -186.000000)">
                <g id="Checkbox-/-Element-/-On-/-Disabled" transform="translate(299.000000, 186.000000)">
                    <mask id="mask-2" fill="white">
                        <use xlink:href="#path-1"></use>
                    </mask>
                    <use id="Container" fill="#E1EAF4" fill-rule="evenodd" xlink:href="#path-1"></use>
                    <g id="Icon-/-Check" mask="url(#mask-2)">
                        <g transform="translate(2.000000, 2.000000)">
                            <mask id="mask-4" fill="white">
                                <use xlink:href="#path-3"></use>
                            </mask>
                            <use id="Fill-1" stroke="none" fill="#3183E2" fill-rule="evenodd" xlink:href="#path-3"></use>
                            <g id="Color-/-1.-Base-/-Base-Light-5" stroke="none" fill="none" mask="url(#mask-4)" fill-rule="evenodd">
                                <rect id="Fill" fill="#FFFFFF" x="0" y="0" width="16" height="16"></rect>
                            </g>
                        </g>
                    </g>
                </g>
            </g>
        </g>
    </g>
</svg>