<svg width="78" height="17" viewBox="0 0 78 17" fill="none" xmlns="http://www.w3.org/2000/svg">
<path fill-rule="evenodd" clip-rule="evenodd" d="M76.6114 11.0672C75.8506 13.1127 75.0771 14.6065 74.4787 15.6079C73.8632 16.6359 72.6612 17.1755 71.4817 16.9487C70.3527 16.7328 68.7325 16.3346 66.6499 15.6048C64.5702 14.8747 63.0626 14.1742 62.0531 13.6413C60.9963 13.0832 60.4272 11.9225 60.6307 10.7496C60.8288 9.60671 61.2179 7.97913 61.9787 5.93365C62.7408 3.88652 63.5133 2.39377 64.1123 1.39258C64.7277 0.364574 65.9292 -0.175256 67.1095 0.0510819C68.237 0.267254 69.8566 0.66517 71.9376 1.39367C74.0195 2.12535 75.5273 2.82516 76.5386 3.35934C77.5941 3.91699 78.1633 5.0792 77.9596 6.25062C77.7618 7.3929 77.3731 9.02132 76.6114 11.0672Z" fill="#00C2FC"/>
<path fill-rule="evenodd" clip-rule="evenodd" d="M56.3908 5.90328C57.1606 7.94195 57.5561 9.5666 57.7603 10.7055C57.9689 11.8753 57.406 13.0373 56.3539 13.5991C55.3475 14.1376 53.845 14.8429 51.7695 15.5829C49.6962 16.3206 48.08 16.7246 46.9556 16.9463C45.7784 17.1781 44.5759 16.6451 43.9564 15.6211C43.3526 14.6235 42.5746 13.1362 41.8047 11.0976C41.0348 9.05678 40.6391 7.43361 40.4356 6.29452C40.227 5.12463 40.7893 3.96291 41.8418 3.4003C42.8472 2.86285 44.3491 2.15771 46.4223 1.41784C48.4985 0.679805 50.1144 0.275188 51.241 0.0534566C52.4169 -0.177932 53.6205 0.356129 54.2388 1.37907C54.8424 2.37604 55.6213 3.86375 56.3908 5.90328Z" fill="#06C92E"/>
<path fill-rule="evenodd" clip-rule="evenodd" d="M36.2189 11.0672C35.458 13.1127 34.6845 14.6065 34.0861 15.6079C33.4707 16.6359 32.2686 17.1755 31.0891 16.9487C29.9601 16.7328 28.3399 16.3346 26.2573 15.6048C24.1777 14.8747 22.67 14.1742 21.6605 13.6413C20.6037 13.0832 20.0346 11.9225 20.2382 10.7496C20.4363 9.60671 20.8253 7.97913 21.5861 5.93365C22.3483 3.88652 23.1207 2.39377 23.7197 1.39258C24.3352 0.364574 25.5366 -0.175256 26.7169 0.0510819C27.8445 0.267254 29.464 0.66517 31.545 1.39367C33.6269 2.12535 35.1348 2.82516 36.146 3.35934C37.2015 3.91699 37.7708 5.0792 37.567 6.25062C37.3692 7.3929 36.9805 9.02132 36.2189 11.0672Z" fill="#FABC22"/>
<path fill-rule="evenodd" clip-rule="evenodd" d="M15.9982 5.90328C16.7681 7.94195 17.1636 9.5666 17.3677 10.7055C17.5763 11.8753 17.0134 13.0373 15.9613 13.5991C14.9549 14.1376 13.4524 14.8429 11.377 15.5829C9.30361 16.3206 7.68743 16.7246 6.56299 16.9463C5.38578 17.1781 4.1833 16.6451 3.56387 15.6211C2.96005 14.6235 2.18199 13.1362 1.41214 11.0976C0.642217 9.05678 0.246544 7.43361 0.0430541 6.29452C-0.165532 5.12463 0.396717 3.96291 1.44923 3.4003C2.4546 2.86285 3.95647 2.15771 6.02976 1.41784C8.10587 0.679805 9.72182 0.275188 10.8484 0.0534566C12.0243 -0.177932 13.2279 0.356129 13.8462 1.37907C14.4498 2.37604 15.2288 3.86375 15.9982 5.90328Z" fill="#F72A16"/>
</svg>
