<?xml version="1.0" encoding="UTF-8"?>
<svg width="30px" height="38px" viewBox="0 0 30 38" version="1.1" xmlns="http://www.w3.org/2000/svg" xmlns:xlink="http://www.w3.org/1999/xlink">
    <!-- Generator: Sketch 52.5 (67469) - http://www.bohemiancoding.com/sketch -->
    <title>Icon / Extra / Documnts / Image / Blue</title>
    <desc>Created with Sketch.</desc>
    <defs>
        <path d="M28,31.8721 C28,33.5731 27.828,34.0261 27.584,34.4821 C27.333,34.9521 26.952,35.3321 26.482,35.5841 C26.027,35.8281 25.573,36.0001 23.872,36.0001 L11.644,36.0001 C11.424,36.0001 11.209,35.9711 11,35.9251 L11,29.9701 C11,28.3301 9.67,27.0001 8.03,27.0001 L2.075,27.0001 C2.029,26.7901 2,26.5761 2,26.3561 L2,6.1281 C2,4.4271 2.172,3.9741 2.416,3.5181 C2.667,3.0481 3.048,2.6671 3.518,2.4161 C3.974,2.1721 4.427,2.0001 6.128,2.0001 L23.872,2.0001 C25.573,2.0001 26.026,2.1721 26.482,2.4161 C26.952,2.6671 27.333,3.0481 27.584,3.5181 C27.828,3.9741 28,4.4281 28,6.1281 L28,31.8721 Z M27.425,0.6521 C28.245,1.0911 28.909,1.7551 29.348,2.5751 C29.771,3.3661 30,4.1661 30,6.1281 L30,31.8721 C30,33.8331 29.771,34.6341 29.348,35.4251 C28.91,36.2451 28.245,36.9091 27.425,37.3471 C26.635,37.7701 25.834,38.0001 23.872,38.0001 L11.644,38.0001 C11.498,38.0001 11.26,37.9767667 10.93,37.9301 C9.875,37.7791 8.897,37.3121 8.131,36.5451 L1.455,29.8691 C0.688,29.1021 0.221,28.1241 0.063,27.0001 C0.035,26.7871 0,26.5751 0,26.3561 L0,6.1281 C0,4.1661 0.229,3.3661 0.652,2.5751 C1.091,1.7551 1.755,1.0911 2.575,0.6521 C3.366,0.2291 4.167,0.0001 6.128,0.0001 L23.872,0.0001 C25.833,0.0001 26.634,0.2291 27.425,0.6521 Z M22.0553,5 L7.9443,5 C6.3203,5 5.0003,6.321 5.0003,7.944 L5.0003,18.056 C5.0003,19.679 6.3203,21 7.9443,21 L22.0553,21 C23.6793,21 25.0003,19.679 25.0003,18.056 L25.0003,7.944 C25.0003,6.321 23.6793,5 22.0553,5 Z M7.9443,7 L22.0553,7 C22.5763,7 23.0003,7.424 23.0003,7.944 L23.0003,16 L19.1413,13.095 L12.3953,18.066 L11.8273,17.243 L15.0003,14 L11.0003,10 L7.0003,14 L7.0003,7.944 C7.0003,7.424 7.4233,7 7.9443,7 Z M17,11.75 C17.966,11.75 18.75,10.966 18.75,10 C18.75,9.034 17.966,8.25 17,8.25 C16.034,8.25 15.25,9.034 15.25,10 C15.25,10.966 16.034,11.75 17,11.75 Z" id="path-1"></path>
        <rect id="path-3" x="0" y="0" width="30" height="38"></rect>
        <filter x="-183.3%" y="-92.1%" width="466.7%" height="389.5%" filterUnits="objectBoundingBox" id="filter-4">
            <feOffset dx="0" dy="20" in="SourceAlpha" result="shadowOffsetOuter1"></feOffset>
            <feGaussianBlur stdDeviation="15" in="shadowOffsetOuter1" result="shadowBlurOuter1"></feGaussianBlur>
            <feColorMatrix values="0 0 0 0 0.156862745   0 0 0 0 0.509803922   0 0 0 0 0.901960784  0 0 0 0.2 0" type="matrix" in="shadowBlurOuter1"></feColorMatrix>
        </filter>
    </defs>
    <g id="CorpSite" stroke="none" stroke-width="1" fill="none" fill-rule="evenodd">
        <g id="Corp_Invest_Assets" transform="translate(-92.000000, -143.000000)">
            <g id="Icon-/-Extra-/-Documnts-/-Image" transform="translate(92.000000, 143.000000)">
                <mask id="mask-2" fill="white">
                    <use xlink:href="#path-1"></use>
                </mask>
                <use fill="#9FBADE" fill-rule="evenodd" xlink:href="#path-1"></use>
                <g id="Color-/-1.-Base-/-Base-Light-1" mask="url(#mask-2)">
                    <g id="Fill">
                        <use fill="black" fill-opacity="1" filter="url(#filter-4)" xlink:href="#path-3"></use>
                        <use fill="#2882E6" fill-rule="evenodd" xlink:href="#path-3"></use>
                    </g>
                </g>
            </g>
        </g>
    </g>
</svg>