<?xml version="1.0" encoding="UTF-8"?>
<svg width="30px" height="38px" viewBox="0 0 30 38" version="1.1" xmlns="http://www.w3.org/2000/svg" xmlns:xlink="http://www.w3.org/1999/xlink">
    <!-- Generator: Sketch 52.5 (67469) - http://www.bohemiancoding.com/sketch -->
    <title>Icon / Extra / Documnts / Exel</title>
    <desc>Created with Sketch.</desc>
    <defs>
        <path d="M28,31.8721 C28,33.5731 27.828,34.0261 27.584,34.4821 C27.333,34.9521 26.952,35.3321 26.482,35.5841 C26.027,35.8281 25.573,36.0001 23.872,36.0001 L11.644,36.0001 C11.424,36.0001 11.209,35.9711 11,35.9251 L11,29.9701 C11,28.3301 9.67,27.0001 8.03,27.0001 L2.075,27.0001 C2.029,26.7901 2,26.5761 2,26.3561 L2,6.1281 C2,4.4271 2.172,3.9741 2.416,3.5181 C2.667,3.0481 3.048,2.6671 3.518,2.4161 C3.974,2.1721 4.427,2.0001 6.128,2.0001 L23.872,2.0001 C25.573,2.0001 26.026,2.1721 26.482,2.4161 C26.952,2.6671 27.333,3.0481 27.584,3.5181 C27.828,3.9741 28,4.4281 28,6.1281 L28,31.8721 Z M29.348,2.5751 C29.771,3.3661 30,4.1661 30,6.1281 L30,31.8721 C30,33.8331 29.771,34.6341 29.348,35.4251 C28.91,36.2451 28.245,36.9091 27.425,37.3471 C26.635,37.7701 25.834,38.0001 23.872,38.0001 L11.644,38.0001 C11.425,38.0001 11.213,37.9651 11,37.9371 L11,38.0001 L10.93,37.9301 C9.875,37.7791 8.897,37.3121 8.131,36.5451 L1.455,29.8691 C0.688,29.1021 0.221,28.1241 0.07,27.0701 L0,27.0001 L0.063,27.0001 C0.035,26.7871 0,26.5751 0,26.3561 L0,6.1281 C0,4.1661 0.229,3.3661 0.652,2.5751 C1.091,1.7551 1.755,1.0911 2.575,0.6521 C3.366,0.2291 4.167,0.0001 6.128,0.0001 L23.872,0.0001 C25.833,0.0001 26.634,0.2291 27.425,0.6521 C28.245,1.0911 28.909,1.7551 29.348,2.5751 Z M22,14 L18,14 C17.448,14 17,14.448 17,15 C17,15.552 17.448,16 18,16 L22,16 C22.552,16 23,15.552 23,15 C23,14.448 22.552,14 22,14 Z M22,7 L18,7 C17.448,7 17,7.448 17,8 C17,8.552 17.448,9 18,9 L22,9 C22.552,9 23,8.552 23,8 C23,7.448 22.552,7 22,7 Z M22,21 L18,21 C17.448,21 17,21.448 17,22 C17,22.552 17.448,23 18,23 L22,23 C22.552,23 23,22.552 23,22 C23,21.448 22.552,21 22,21 Z M12,21 L8,21 C7.448,21 7,21.448 7,22 C7,22.552 7.448,23 8,23 L12,23 C12.552,23 13,22.552 13,22 C13,21.448 12.552,21 12,21 Z M22,28 L18,28 C17.448,28 17,28.448 17,29 C17,29.552 17.448,30 18,30 L22,30 C22.552,30 23,29.552 23,29 C23,28.448 22.552,28 22,28 Z M11.269,11.6387 C11.134,11.4397 11.133,11.1827 11.268,10.9837 C11.933,10.0047 12.947,8.4957 13.514,7.6517 C13.695,7.3817 13.503,7.0207 13.178,7.0187 L11.623,7.0107 C11.423,7.0097 11.236,7.1077 11.123,7.2717 L9.948,8.9847 C9.834,9.1507 9.589,9.1497 9.477,8.9827 L8.324,7.2667 C8.211,7.0987 8.022,6.9987 7.82,6.9997 L6.381,7.0097 C6.003,7.0127 5.779,7.4327 5.989,7.7457 C6.562,8.5997 7.517,10.0187 8.172,10.9847 C8.307,11.1837 8.307,11.4407 8.171,11.6387 C7.401,12.7687 6.257,14.4667 5.552,15.5147 C5.282,15.9147 5.57,16.4517 6.052,16.4517 L9.903,16.4517 C10.209,16.4517 10.39,16.1087 10.216,15.8567 L9.758,15.1937 C9.652,15.0407 9.478,14.9487 9.291,14.9477 L8.587,14.9447 L9.376,13.7757 C9.539,13.5347 9.893,13.5347 10.056,13.7747 L11.693,16.1897 C11.806,16.3547 11.992,16.4527 12.192,16.4537 L13.396,16.4537 C13.879,16.4537 14.166,15.9147 13.896,15.5147 C13.187,14.4667 12.04,12.7697 11.269,11.6387 Z" id="path-1"></path>
    </defs>
    <g id="CorpSite" stroke="none" stroke-width="1" fill="none" fill-rule="evenodd">
        <g id="Corp_Invest_Assets" transform="translate(-188.000000, -90.000000)">
            <g id="Icon-/-Extra-/-Documnts-/-Table" transform="translate(188.000000, 90.000000)">
                <mask id="mask-2" fill="white">
                    <use xlink:href="#path-1"></use>
                </mask>
                <use id="Icon-/-Extra-/-Documnts-/-table" fill="#9FBADE" fill-rule="evenodd" xlink:href="#path-1"></use>
                <g id="Color-/-1.-Base-/-Base-Light-1" mask="url(#mask-2)" fill="#A1B9D3" fill-rule="evenodd">
                    <rect id="Fill" x="0" y="0" width="30" height="38"></rect>
                </g>
            </g>
        </g>
    </g>
</svg>