<?xml version="1.0" encoding="UTF-8"?>
<svg width="30px" height="38px" viewBox="0 0 30 38" version="1.1" xmlns="http://www.w3.org/2000/svg" xmlns:xlink="http://www.w3.org/1999/xlink">
    <!-- Generator: Sketch 52.5 (67469) - http://www.bohemiancoding.com/sketch -->
    <title>Icon / Extra / Documnts / PDF</title>
    <desc>Created with Sketch.</desc>
    <defs>
        <path d="M28,31.872 C28,33.573 27.828,34.026 27.584,34.482 C27.333,34.952 26.952,35.332 26.482,35.584 C26.027,35.828 25.573,36 23.872,36 L11.644,36 C11.424,36 11.209,35.971 11,35.925 L11,29.97 C11,28.33 9.67,27 8.03,27 L2.075,27 C2.029,26.79 2,26.576 2,26.356 L2,6.128 C2,4.427 2.172,3.974 2.416,3.518 C2.667,3.048 3.048,2.667 3.518,2.416 C3.974,2.172 4.427,2 6.128,2 L23.872,2 C25.573,2 26.026,2.172 26.482,2.416 C26.952,2.667 27.333,3.048 27.584,3.518 C27.828,3.974 28,4.428 28,6.128 L28,31.872 Z M29.348,2.575 C29.771,3.366 30,4.166 30,6.128 L30,31.872 C30,33.833 29.771,34.634 29.348,35.425 C28.91,36.245 28.245,36.909 27.425,37.347 C26.635,37.77 25.834,38 23.872,38 L11.644,38 C11.498,38 11.26,37.9766667 10.93,37.93 C9.875,37.779 8.897,37.312 8.131,36.545 L1.455,29.869 C0.688,29.102 0.221,28.124 0.07,27.07 C0.0233333333,26.74 0,26.502 0,26.356 L0,6.128 C0,4.166 0.229,3.366 0.652,2.575 C1.091,1.755 1.755,1.091 2.575,0.652 C3.366,0.229 4.167,0 6.128,0 L23.872,0 C25.833,0 26.634,0.229 27.425,0.652 C28.245,1.091 28.909,1.755 29.348,2.575 Z M7.021,8.2052 C6.553,8.2052 5.642,8.2172 5.006,8.2292 C4.706,8.2292 4.455,8.4812 4.455,8.7932 L4.455,16.0732 C4.455,16.3732 4.706,16.6252 5.006,16.6252 L5.822,16.6252 C6.122,16.6252 6.374,16.3732 6.374,16.0732 L6.374,13.7702 C6.673,13.8062 7.129,13.8062 7.309,13.8062 C9.252,13.8062 10.415,12.4872 10.415,10.9882 C10.415,9.5372 9.576,8.2052 7.021,8.2052 Z M7.249,12.0072 C6.973,12.0072 6.649,11.9832 6.374,11.9472 L6.374,10.0282 C6.769,10.0162 6.961,10.0052 7.213,10.0052 C7.896,10.0052 8.376,10.2322 8.376,10.9762 C8.376,11.7912 7.752,12.0072 7.249,12.0072 Z M14.6288,8.194 C14.2088,8.194 13.2378,8.218 12.5298,8.229 C12.2298,8.229 11.9788,8.481 11.9788,8.793 L11.9788,16.061 C11.9788,16.373 12.2298,16.625 12.5298,16.625 C13.3698,16.637 14.1738,16.649 14.5328,16.649 C17.7358,16.649 19.3428,14.706 19.3428,12.355 C19.3428,10.124 17.9868,8.194 14.6288,8.194 Z M14.5928,14.85 C14.3168,14.85 14.1488,14.85 13.8978,14.826 L13.8978,10.029 C14.1368,9.993 14.4008,9.993 14.6048,9.993 C16.1638,9.993 17.3028,10.808 17.3028,12.355 C17.3028,13.951 16.2478,14.85 14.5928,14.85 Z M25.2119,8.2294 L21.4579,8.2294 C21.1579,8.2294 20.9059,8.4814 20.9059,8.7814 L20.9059,16.0734 C20.9059,16.3734 21.1579,16.6254 21.4579,16.6254 L22.2739,16.6254 C22.5729,16.6254 22.8249,16.3734 22.8249,16.0734 L22.8249,13.6024 L24.8519,13.6024 C25.1519,13.6024 25.4039,13.3504 25.4039,13.0504 L25.4039,12.3554 C25.4039,12.0554 25.1519,11.8034 24.8519,11.8034 L22.8249,11.8034 L22.8249,10.0284 L25.2119,10.0284 C25.5119,10.0284 25.7629,9.7764 25.7629,9.4774 L25.7629,8.7814 C25.7629,8.4814 25.5119,8.2294 25.2119,8.2294 Z" id="path-1"></path>
    </defs>
    <g id="CorpSite" stroke="none" stroke-width="1" fill="none" fill-rule="evenodd">
        <g id="Corp_Invest_Assets" transform="translate(-140.000000, -90.000000)">
            <g id="Icon-/-Extra-/-Documnts-/-PDF" transform="translate(140.000000, 90.000000)">
                <mask id="mask-2" fill="white">
                    <use xlink:href="#path-1"></use>
                </mask>
                <use fill="#9FBADE" fill-rule="evenodd" xlink:href="#path-1"></use>
                <g id="Color-/-1.-Base-/-Base-Light-1" mask="url(#mask-2)" fill="#A1B9D3" fill-rule="evenodd">
                    <rect id="Fill" x="0" y="0" width="30" height="38"></rect>
                </g>
            </g>
        </g>
    </g>
</svg>